<?xml version="1.0" encoding="utf-8"?>
<!-- Generator: Adobe Illustrator 19.1.0, SVG Export Plug-In . SVG Version: 6.00 Build 0)  -->
<svg version="1.1" xmlns="http://www.w3.org/2000/svg" xmlns:xlink="http://www.w3.org/1999/xlink" x="0px" y="0px"
	 viewBox="0 0 100 40" style="enable-background:new 0 0 100 40;" xml:space="preserve">
<style type="text/css">
	.st0{display:none;}
	.st1{display:inline;}
	.st2{fill:#181878;}
	.st3{fill:#B6121C;}
	.st4{fill:#E60000;}
	.st5{fill:#231815;}
	.st6{fill:#101177;}
	.st7{fill:#00AAEA;}
	.st8{fill:#999999;}
	.st9{fill:#FFFFFF;}
	.st10{fill:#9E9E9F;}
	.st11{fill:#5CAC34;}
	.st12{fill:#474747;}
	.st13{display:inline;fill:#393D4C;}
	.st14{display:inline;fill:#EC7126;}
	.st15{fill:#EC7126;}
	.st16{fill:#1C3193;}
	.st17{fill:#E50012;}
	.st18{fill:#595757;}
	.st19{display:inline;fill:#00ABEB;}
	.st20{display:inline;fill:#221815;}
	.st21{display:inline;fill:#E60012;}
	.st22{display:inline;fill:#E50038;}
	.st23{display:inline;fill:#FFFFFF;}
</style>
<g id="_x40_type" class="st0">
	<g class="st1">
		<path class="st2" d="M11.8,22.5c-0.3,0.4-0.6,0.7-0.8,0.8c-0.3,0.2-0.6,0.3-0.9,0.3c-0.4,0-0.7-0.2-0.9-0.5
			c-0.2-0.3-0.3-0.8-0.3-1.4c0-0.8,0.1-1.6,0.3-2.4c0.2-0.8,0.5-1.6,0.8-2.2c0.3-0.6,0.7-1.2,1.1-1.6c0.4-0.4,0.8-0.6,1.3-0.6
			c0.5,0,0.8,0.2,1.1,0.5c0.2,0.3,0.4,0.7,0.4,1.2L11.8,22.5z M17.2,9.1c-1.2-0.5-2.6-0.7-4.3-0.7c-1.9,0-3.7,0.3-5.3,1
			c-1.6,0.7-3,1.6-4.1,2.7c-1.1,1.1-2,2.4-2.6,3.9C0.3,17.4,0,18.9,0,20.4c0,1.8,0.3,3.3,1,4.7c0.7,1.3,1.6,2.5,2.7,3.3
			c1.1,0.9,2.3,1.6,3.8,2c1.4,0.4,2.8,0.7,4.2,0.7c1.7,0,3.1-0.2,4.4-0.7c1.3-0.5,2.4-1.1,3.4-2L19,27.6c-0.9,0.7-2,1.3-3.2,1.7
			c-1.2,0.4-2.5,0.6-4.1,0.6c-1.3,0-2.6-0.2-3.7-0.6c-1.1-0.4-2.1-1-2.9-1.8c-0.8-0.8-1.5-1.8-1.9-3c-0.5-1.2-0.7-2.6-0.7-4.2
			c0-1.6,0.3-3.1,0.9-4.4c0.6-1.3,1.4-2.4,2.3-3.3c1-0.9,2.1-1.6,3.3-2.1c1.2-0.5,2.4-0.7,3.7-0.7c1.3,0,2.5,0.2,3.6,0.6
			c1,0.4,1.9,0.9,2.6,1.6c0.7,0.7,1.2,1.4,1.6,2.3c0.3,0.9,0.5,1.9,0.5,2.9c0,2.1-0.4,3.8-1.3,5.1c-0.8,1.3-2,1.9-3.4,1.9
			c-0.3,0-0.6-0.1-0.8-0.3c-0.2-0.2-0.2-0.5-0.2-0.9c0-0.2,0-0.4,0.1-0.7c0.1-0.3,0.1-0.6,0.2-0.8l2.7-7.5h-3.5l-0.4,1.2h0
			c-0.2-0.4-0.4-0.8-0.7-1c-0.3-0.2-0.8-0.3-1.4-0.3c-0.9,0-1.8,0.2-2.7,0.7C8.7,15,8,15.6,7.4,16.3c-0.6,0.7-1.1,1.6-1.5,2.5
			c-0.4,0.9-0.5,1.8-0.5,2.6c0,1.1,0.3,2,0.9,2.7c0.6,0.7,1.5,1,2.6,1c0.4,0,0.8,0,1-0.1c0.3-0.1,0.5-0.2,0.8-0.4
			c0.3-0.2,0.5-0.3,0.7-0.6c0.2-0.2,0.4-0.4,0.7-0.7h0.1c0.2,0.5,0.6,0.9,1.2,1.3c0.6,0.3,1.4,0.5,2.4,0.5c1.9,0,3.5-0.8,4.7-2.3
			c1.3-1.6,1.9-3.5,1.9-5.7c0-1.1-0.2-2.2-0.6-3.3c-0.4-1.1-1-2-1.7-2.8C19.4,10.3,18.4,9.6,17.2,9.1z"/>
		<path class="st2" d="M27.2,15.8v7.9c0,1.4,1.3,3.5,5.3,3.5c2.3,0,4.8-0.9,6.3-2.2l-0.9-0.6c-0.8,0.4-1.9,0.9-2.9,0.9
			c-1.7,0-1.6-0.9-1.6-1.8v-7.8h4.5v-1.2h-4.5v-4.5h-2.2c-0.8,2.2-1.9,4.1-6.7,4.5v1.2H27.2z"/>
		<path class="st2" d="M38.9,14.6v1.2c1.7,0,2.3,0.5,2.9,1.4l6.8,9.8c-0.4,0.7-1.8,2.5-3,2.5c-0.8,0-1.6-1.4-3.6-1.4
			c-1.5,0-2.5,0.8-2.5,1.7c0,1.2,1.2,1.8,3.2,1.8c4.3,0,6-2.4,7.5-4.7l5.6-8.4c1-1.5,1.9-2.8,4.2-2.8v-1.1h-8.2l0,1.2
			c2.1,0,2.7,0.2,2.9,1c0.1,0.6-0.1,1.2-0.5,1.7l-2.4,3.5l-2.8-3.5c-0.4-0.6-1.2-1.6-1.2-1.9c0-0.6,0.8-0.8,1.7-0.8v-1.2H38.9z"/>
		<path class="st2" d="M73.2,14.3c-1.8,0-3.5,0.5-4.8,1.7v-1.4h-8.8v1.1c2.1,0,2.7,1.5,2.7,2.5v10.5c0,1.9-1.1,2.1-2.5,2.1v0.8h11
			v-0.8c-1.1,0-2.4-0.2-2.4-1.8v-3.2c0.9,0.8,2.5,1.4,4.8,1.4c4.3,0,7.7-2.5,7.7-6.6C81,17.1,78.1,14.3,73.2,14.3z M71.6,25.8
			c-1.3,0-2.4-0.6-3.2-1.4v-7.1c0.7-0.7,1.6-1.5,3.3-1.5c2.4,0,3.3,2.8,3.3,4.7C75,23.1,74.1,25.8,71.6,25.8z"/>
		<path class="st2" d="M99.1,23.9c-1.4,1-3.4,1.9-5.5,1.9c-3.9,0-5.4-2.6-5.5-4.9H100c0-3.7-3.6-6.5-8.8-6.5c-5.6,0-9.4,2.9-9.4,6.8
			c0,3.7,4.3,6.2,9.7,6.2c3.7,0,6.2-1,8.5-2.9L99.1,23.9z M91.1,15.5c2,0,2.8,2,2.8,4.1l-5.8,0C88.2,17.4,89.2,15.5,91.1,15.5z"/>
		<path class="st2" d="M98.5,29.2c0.1,0,0.2,0,0.2,0.2c0,0.2-0.1,0.3-0.3,0.3h-0.7v-0.5H98.5z M97.4,28.8v2.1h0.4v-0.8h0.7
			c0.1,0,0.3,0,0.3,0.3v0.2c0,0.1,0,0.2,0,0.3h0.4c0-0.1,0-0.3,0-0.4v-0.2c0-0.2-0.1-0.3-0.3-0.4c0.3-0.1,0.3-0.4,0.3-0.5
			c0-0.6-0.4-0.6-0.6-0.6H97.4z"/>
		<path class="st2" d="M96.6,29.9c0-1,0.8-1.7,1.7-1.7l0,0c1,0,1.7,0.8,1.7,1.7l0,0c0,1-0.8,1.7-1.7,1.7l0,0
			C97.3,31.6,96.6,30.8,96.6,29.9L96.6,29.9z M96.8,29.9c0,0.8,0.7,1.5,1.5,1.5l0,0c0.8,0,1.5-0.7,1.5-1.5l0,0
			c0-0.8-0.7-1.5-1.5-1.5l0,0C97.5,28.4,96.8,29,96.8,29.9L96.8,29.9z"/>
	</g>
</g>
<g id="BIZREACH">
	<path class="st3" d="M0,17.4h5.8c2.3,0,3.8,0.6,3.8,2.5c0,1.2-0.6,1.7-1.1,2c0.7,0.3,1.5,1.1,1.5,2.4C9.9,26,8.5,27,6.2,27H0V17.4z
		 M5.9,21.2c1.2,0,1.8-0.3,1.8-1.1c0-0.8-0.5-1.1-1.8-1.1h-4v2.2H5.9z M6,25.5c1.2,0,2.1-0.2,2.1-1.4c0-1-0.8-1.3-2.1-1.3H1.9v2.7H6
		z"/>
	<path class="st3" d="M14.5,17.4h1.9V27h-1.9V17.4z"/>
	<path class="st3" d="M20.5,27v-0.9l6.7-7.1h-6.4v-1.6H30v1.1l-6.5,6.9h6.7V27H20.5z"/>
	<path d="M34.4,17.4h5.8c2.3,0,3.9,0.5,3.9,2.9c0,1.8-1.3,2.8-2.7,2.8l3,3.9h-2.3l-2.8-3.8h-3V27h-1.9V17.4z M39.9,21.7
		c1.5,0,2.3-0.2,2.3-1.4c0-1.1-0.8-1.3-2.3-1.3h-3.6v2.7H39.9z"/>
	<path d="M48.6,17.4h8.6V19h-6.7v2.2h5.8v1.6h-5.8v2.5h6.9V27h-8.8V17.4z"/>
	<path d="M65,17.4h2.1l4.7,9.6h-2l-1-2.2h-5.5l-1,2.2h-2L65,17.4z M68.1,23.2l-2-4.3l-2,4.3H68.1z"/>
	<path d="M85,23.6c-0.2,1.1-1,3.7-5.4,3.7c-3,0-5.4-1.7-5.4-5.2c0-2.8,1.8-4.9,5.6-4.9c4.3,0,4.9,2.8,5.1,3.3H83
		c-0.1-0.3-0.8-1.7-3.1-1.7c-2.7,0-3.8,1.5-3.8,3.5c0,2.2,1.6,3.4,3.7,3.4c2.2,0,3.2-1.3,3.3-2.1H85z"/>
	<path d="M98.1,14.3v2.9h-7v-2.9h-1.9V27h1.9v-2.9h7V27h1.9V14.3H98.1z M98.1,18.6V20h-7v-1.4H98.1z M91.1,22.8v-1.4h7v1.4H91.1z"/>
</g>
<g id="イーキャリアFA" class="st0">
	<g class="st1">
		<polygon class="st4" points="13.6,19.5 12.9,22.2 24.8,22.2 25.5,19.5 		"/>
		<polygon class="st4" points="35.3,15.2 32.4,15.2 32,17 27.7,17 27,19.5 31.5,19.5 31.1,21.4 26.2,21.4 25.5,23.9 30.5,23.9 
			29.9,27 32.7,27 33.4,23.9 38.2,23.9 38.8,21.4 33.9,21.4 34.3,19.5 39,19.5 39.7,17 34.9,17 		"/>
		<path class="st4" d="M44.4,18.4h-2.1l-0.2,1.2h-1.4l-0.5,1.9h1.7L40.9,27l2.1,0l0.9-5.6H47c-0.5,1-1.2,1.4-2.3,1.6l-0.6,2
			c3.7-0.2,5-3.3,5.5-5.5h-5.5L44.4,18.4z"/>
		<polygon class="st4" points="55.1,15.6 52.4,15.6 50.6,22.1 53.3,22.1 		"/>
		<path class="st4" d="M60.4,15.5l-1.7,6.1c-0.8,2.4-2.2,3-4.1,3h-2.5L51.5,27H55c3.9-0.3,5.6-2.6,6.4-5.4l1.7-6.1H60.4z"/>
		<path class="st4" d="M64,18h9.9c-0.5,1.3-1.1,2-3.8,2l0.2-0.8h-2.6c-1,4.8-3,5.2-5.2,5.4L61.7,27c3.7-0.1,6.5-1.6,7.5-4.4
			c3.3-0.3,6.5-0.3,7.8-7H64.6L64,18z"/>
		<path class="st4" d="M13.9,15.5c-7,0-7.1,4.3-13.2,4.3L0,22.4c2.9,0,4.2-0.5,5.8-1.4l-1.7,6h2.8l2.2-7.8c0.9-0.5,2.2-1.3,4.1-1.2
			L13.9,15.5z"/>
	</g>
	<g class="st1">
		<path class="st4" d="M77.1,27l5.2-14.8h8.8L90,15.5h-4.5l-0.9,2.5h4.3l-1.1,3.2h-4.3L81.4,27H77.1z"/>
		<path class="st4" d="M85.9,27l9.6-14.8h4.5L98.9,27h-4.2l0.3-2.3h-3.5L90.1,27H85.9z M93.3,21.5h2.2l0.8-5.3L93.3,21.5z"/>
	</g>
</g>
<g id="Geekly" class="st0">
	<g id="logo" class="st1">
		<path class="st5" d="M57.7,11.3c0-1.3,0-1.7-0.7-2.1l-0.6-0.3c-0.2-0.2-0.7-0.9,0.2-1c1.8-0.1,3.9-0.8,5.1-0.9
			c0.2,0,0.3,0.2,0.3,0.5c0,1.3-0.1,1.5-0.1,3.6v10.3c0,0.4,0.1,0.5,0.5,0.5c0.6,0,1.2-0.2,1.9-0.9l1.4-1.6c0.6-0.8,0.8-1.1,0.8-1.3
			c0-0.2-0.3-0.3-0.6-0.4L65,17.5c-0.3-0.3-0.3-1,0.1-1.1h0.8c1.5,0,3.5,0.1,6.2-0.1c0.4,0,0.4,0.9,0.1,1.1l-1.1,0.2
			c-0.6,0.1-1.3,0.2-2.2,0.9c-1.2,1-1.7,1.4-2.2,1.9c-0.2,0.2-0.2,0.3-0.2,0.4c0,0.1,0.1,0.3,0.2,0.6c0.6,1.1,3.5,5.5,4.3,6.3
			c0.5,0.4,1.1,0.6,1.9,0.8l0.5,0.1c0.3,0.2,0.2,1-0.1,1.1c-1-0.1-2.2-0.1-4.1-0.1c-1.9,0-3.1,0-4,0.1c-0.3-0.2-0.4-0.9-0.1-1.1
			l0.4-0.1c0.3-0.1,0.5-0.1,0.5-0.3c0-0.1-0.3-0.7-0.6-1.1l-2.3-3.5c-0.2-0.4-0.5-0.5-0.8-0.5c-0.2,0-0.4,0.2-0.4,0.8v1.9
			c0,2.3,0.1,2.6,1.3,2.7l0.5,0.1c0.3,0.2,0.3,1,0,1.1c-1.1-0.1-2.4-0.1-3.9-0.1c-1.5,0-2.9,0-4,0.1c-0.3-0.2-0.3-1,0-1.1l0.6-0.1
			c1.2-0.1,1.3-0.4,1.3-2.7V11.3z"/>
		<path class="st5" d="M76.6,11.4c0-1.3,0-1.7-0.7-2.1L75.4,9c-0.2-0.2-0.3-0.9,0-1c2-0.3,3.3-0.4,5.4-0.9C81,7.1,81,7.3,81,7.7
			c0,1.3-0.1,1.4-0.1,3.4v14.6c0,2.3,0.1,2.6,1.3,2.7l0.6,0.1c0.3,0.2,0.3,1,0,1.1c-1.1-0.1-2.5-0.1-3.9-0.1c-1.4,0-2.8,0-3.9,0.1
			c-0.3-0.2-0.3-1,0-1.1l0.6-0.1c1.1-0.1,1.2-0.4,1.2-2.7V11.4z"/>
		<path class="st5" d="M83.4,17.5c-0.2-0.2-0.2-1,0.1-1.1c1.2,0.1,2.6,0.1,4.3,0.1c1.2,0,2.5,0,3.7-0.1c0.3,0.1,0.4,0.9,0.1,1.2
			L91,17.6c-0.9,0.2-1,0.3-1,0.6c0,0.4,0.3,1.3,1,2.9c0.4,0.9,1,2.9,1.4,3.8c0.4-0.7,0.7-1.4,1-2.2l0.6-1.3c0.7-1.6,1.2-2.9,1.3-3.3
			c0-0.2-0.3-0.4-0.7-0.5l-0.7-0.1c-0.3-0.2-0.3-1.1,0.1-1.1c0.7,0.1,1.7,0.1,3.2,0.1c0.9,0,1.7,0,2.6-0.1c0.3,0.1,0.3,1,0.1,1.1
			l-0.6,0.1c-0.7,0.1-1.2,0.3-1.5,0.7c-0.4,0.5-1.2,1.9-2,3.4l-1.8,3.6c-1.2,2.4-3.1,6.4-4.6,8.8c-0.8,1.4-2.7,2-3.9,2
			c-1.8,0-2.5-1.4-2.5-2.3c0-1,0.6-2,1.6-2.1c1.2-0.2,1.8,0,2.4,0.8c0.8,0.9,1.1,1.1,1.4,0.7c0.4-0.5,0.6-0.8,0.9-1.5
			c0.2-0.4,0.4-1,0.4-1.4c0-0.4-0.1-1.1-0.6-2.4l-3.1-8c-0.6-1.6-0.9-2.1-1.9-2.3L83.4,17.5z"/>
		<path class="st5" d="M22,26.4c0,1.5,0.1,2.2,0.7,2.3c0.1,0.1,0.1,0.7-0.1,0.8c-0.6,0.1-1.5,0.2-2.5,0.5c-1.2,0.4-4.3,0.8-6.3,0.8
			c-2.4,0-4.5-0.2-7-1.2C2.8,28,0,24.1,0,19c0-4.4,2-8.3,6.2-10.7c2.4-1.3,5.3-1.9,8.3-1.9c3.9,0,5.9,0.8,7,0.8
			c0.1,1.1,0.1,3.5,0.5,5.7c-0.1,0.4-1.1,0.4-1.3,0.1c-1.1-3.3-3.4-5-6.6-5c-5.6,0-8.3,4.7-8.3,10.2c0,5.1,1.7,8.1,4,9.6
			c1.7,1.1,3.5,1.3,4.8,1.3c2,0,2.4-0.4,2.4-2.7v-2.2c0-1.9-0.2-2.4-1.9-2.6l-1.6-0.2c-0.4-0.2-0.4-1,0-1.2c2.5,0.1,4.2,0.1,6,0.1
			c1.7,0,3.4,0,4.6-0.1c0.3,0.2,0.3,1,0,1.2l-0.8,0.1c-1.1,0.2-1.3,0.8-1.3,2.7V26.4z"/>
		<path class="st5" d="M49.3,15c-3.5-0.9-6.7,0.6-7.4,3.2c-0.2,0.6-0.1,1.2,0.9,1.4l7.3,2.1c0.8,0.2,0.8,0.3,0.7,0.8
			c-0.7,2.5-3.1,4.4-6.2,3.6c-0.9-0.3-2.2-0.8-2.7-2.6c-0.4-0.2-0.9,0-1.1,0.5c0.6,3.2,2.8,4.9,4.9,5.4c4.5,1.2,7.9-1.3,8.9-5
			C55.7,20.3,53.5,16.1,49.3,15z M49.9,19.7c-0.7,0-1.3-0.6-1.3-1.3c0-0.7,0.6-1.3,1.3-1.3c0.7,0,1.3,0.6,1.3,1.3
			C51.2,19.1,50.6,19.7,49.9,19.7z"/>
		<path class="st5" d="M33.8,15c-3.5-0.9-6.7,0.6-7.4,3.2c-0.2,0.6-0.1,1.2,0.9,1.4l7.3,2.1c0.8,0.2,0.8,0.3,0.7,0.8
			c-0.7,2.5-3.1,4.4-6.2,3.6c-0.9-0.3-2.2-0.8-2.7-2.6c-0.4-0.2-0.9,0-1.1,0.5c0.6,3.2,2.8,4.9,4.9,5.4c4.5,1.2,7.9-1.3,8.9-5
			C40.2,20.3,38,16.1,33.8,15z M34.4,19.7c-0.7,0-1.3-0.6-1.3-1.3c0-0.7,0.6-1.3,1.3-1.3c0.7,0,1.3,0.6,1.3,1.3
			C35.7,19.1,35.1,19.7,34.4,19.7z"/>
	</g>
</g>
<g id="DODA" class="st0">
	<g class="st1">
		<path class="st6" d="M50.5,13.3c0.2,0,0.3,0,0.5,0c4.7,0,9.4,0,14.1,0c1.9,0,3.8,0.3,5.6,1c1.7,0.7,3,1.8,3.5,3.7
			c0.5,1.9,0.3,3.7-0.8,5.4c-0.7,1.1-1.8,1.8-3,2.2c-1.3,0.5-2.7,0.8-4.1,0.9c-1,0.1-2.1,0.1-3.1,0.1c-4.1,0-8.2,0-12.3,0
			c-0.2,0-0.3,0-0.6,0c0.1-0.2,0.2-0.3,0.3-0.4c0.7-0.4,1.4-0.8,2.2-1.2c0.4-0.2,0.8-0.4,1.2-0.7c0.1-0.1,0.2-0.3,0.2-0.4
			c0-2.8,0-5.5,0-8.3c0-0.2-0.1-0.3-0.2-0.4c-1.1-0.5-2.2-1.1-3.3-1.7c-0.1-0.1-0.2-0.2-0.3-0.3C50.5,13.3,50.5,13.3,50.5,13.3z
			 M60,24.2c1.2,0,2.4,0,3.6,0c1.2,0,2.3-0.3,3.4-0.9c0.8-0.5,1.4-1.3,1.6-2.2c0.2-0.7,0.2-1.4,0.1-2c-0.2-1.2-0.7-2.2-1.8-2.8
			c-1-0.6-2.1-0.7-3.2-0.8c-1.1,0-2.2,0-3.3,0c-0.1,0-0.2,0-0.3,0C60,18.5,60,21.3,60,24.2z"/>
		<path class="st6" d="M0,26.6c0.1-0.1,0.1-0.2,0.2-0.3c1.1-0.6,2.2-1.2,3.3-1.8C3.9,24.3,4,24.2,4,23.8c0-2.6,0-5.3,0-7.9
			c0-0.3-0.1-0.4-0.3-0.5c-1.1-0.5-2.2-1.1-3.3-1.7c-0.1-0.1-0.2-0.2-0.3-0.3c0,0,0-0.1,0.1-0.1c0.1,0,0.3,0,0.4,0
			c4.8,0,9.6,0,14.4,0c2.2,0,4.3,0.3,6.3,1.4c1.6,0.9,2.6,2.1,2.8,3.9c0.2,1.4,0.1,2.8-0.5,4.1c-0.5,1-1.3,1.8-2.3,2.3
			c-1.4,0.8-3,1.2-4.6,1.4c-1.3,0.1-2.5,0.2-3.8,0.2c-4.1,0-8.1,0-12.2,0c-0.2,0-0.3,0-0.5,0C0.1,26.6,0.1,26.6,0,26.6z M9.6,24.2
			c1.1,0,2.2,0,3.2,0c1.1,0,2.1-0.1,3.1-0.5c0.9-0.4,1.6-1,2-1.9c0.4-1,0.4-1.9,0.3-2.9c-0.2-1.1-0.7-1.9-1.7-2.5
			c-1-0.6-2.1-0.7-3.2-0.8c-1.1,0-2.3,0-3.4,0c-0.1,0-0.2,0-0.3,0C9.6,18.5,9.6,21.3,9.6,24.2z"/>
		<path class="st6" d="M26.5,20c0-1.4,0.3-2.6,1.1-3.7c0.8-1.2,1.9-1.9,3.2-2.4c1.3-0.5,2.6-0.8,4-0.9c0.8-0.1,1.5-0.1,2.3-0.2
			c0.5,0,0.9-0.1,1.4-0.1c2.3,0.1,4.6,0.2,6.8,1c1.2,0.4,2.3,1,3.1,1.9c0.9,0.9,1.4,2.1,1.6,3.4c0.2,1.1,0.1,2.1-0.2,3.1
			c-0.3,1.1-0.9,2-1.8,2.7c-1.3,1.1-2.9,1.7-4.6,2c-0.8,0.2-1.7,0.3-2.5,0.3c-0.9,0.1-1.8,0.2-2.7,0.1c-2.3-0.1-4.7-0.2-6.9-1
			c-1-0.4-1.9-0.9-2.7-1.6c-1.1-1-1.7-2.2-1.9-3.6C26.5,20.7,26.5,20.3,26.5,20z M38.2,15c-0.7,0.1-1.4,0.1-2,0.2
			c-1,0.2-1.9,0.5-2.7,1.2c-1.3,1.3-1.5,3-1.2,4.8c0.3,1.6,1.4,2.6,2.9,3.1c1.3,0.4,2.6,0.5,3.9,0.4c1-0.1,2-0.3,2.9-0.8
			c1-0.5,1.7-1.4,2-2.5c0.3-1,0.3-1.9,0.1-2.9c-0.3-1.2-0.9-2.2-2.1-2.8C40.7,15.1,39.5,15,38.2,15z"/>
		<path class="st6" d="M73.9,26.6c2.6-3.8,5.1-7.5,7.7-11.3c-0.8-0.4-1.5-0.8-2.3-1.1c-0.3-0.2-0.6-0.3-0.9-0.5
			c-0.1-0.1-0.2-0.2-0.3-0.3c0.2,0,0.4,0,0.5,0c4,0,7.9,0,11.9,0c0.3,0,0.4,0.1,0.5,0.3c1.4,2.1,2.9,4.2,4.3,6.3
			c1.2,1.7,2.4,3.4,3.6,5.1c0.4,0.5,0.7,1,1.1,1.6c-0.2,0-0.3,0-0.4,0c-2,0-3.9,0-5.9,0c-0.3,0-0.4-0.1-0.6-0.3
			c-0.7-1.1-1.4-2.1-2-3.2c-0.1-0.2-0.3-0.3-0.6-0.3c-3.1,0-6.2,0-9.3,0c-0.7,0-1.1,0.2-1.5,0.8c-0.5,0.9-1.2,1.8-1.8,2.7
			c-0.1,0.1-0.2,0.2-0.4,0.2C76.4,26.6,75.2,26.6,73.9,26.6z M89.4,20.4c-1.2-1.8-2.3-3.5-3.4-5.2c-0.2-0.3-0.4-0.2-0.6,0
			c-0.9,1.4-1.9,2.8-2.8,4.2c-0.2,0.3-0.4,0.6-0.6,1C84.4,20.4,86.9,20.4,89.4,20.4z"/>
	</g>
</g>
<g id="JAC" class="st0">
	<g class="st1">
		<path class="st7" d="M20.6,16c-0.4,0-0.4-0.4-0.3-0.5c0.4-0.4,0.6-0.9,0.6-1.4c0-1.1-0.9-2-2-2c-1.1,0-2,0.9-2,2
			c0,0.6,0.3,1.1,0.6,1.5c0.2,0.2,0,0.5-0.3,0.5v0h-4.5v-4.9c-0.1-0.6-0.5-0.5-0.6-0.4c-0.2,0.2-0.6,0.4-1,0.5c-1,0.1-1.9-0.6-2-1.6
			c-0.1-1,0.6-1.9,1.6-2c0.6-0.1,1.1,0.1,1.5,0.5c0.2,0.2,0.5,0.2,0.6-0.2V2.6H0.2V34h25.2V16H20.6z"/>
		<path class="st8" d="M14.4,1l-0.5,5c-0.1,0.6-0.5,0.6-0.7,0.3c-0.3-0.4-0.8-0.7-1.4-0.7c-1,0-1.8,0.8-1.8,1.8c0,1,0.8,1.8,1.8,1.8
			c0.4,0,0.8-0.1,1.1-0.3c0.1-0.1,0.7-0.1,0.6,0.6h0l-0.5,4.7l4.4,0.5c0.3,0,0.5-0.2,0.3-0.5c-0.4-0.4-0.5-0.9-0.5-1.5
			c0.1-1.1,1.1-1.9,2.2-1.8c1.1,0.1,1.9,1.1,1.8,2.2c-0.1,0.6-0.3,1-0.8,1.4c-0.2,0.1-0.2,0.5,0.2,0.6l4.8,0.5l1.5-13.3L14.4,1z"/>
		<g>
			<g>
				<path class="st9" d="M7.1,24.9h1.2V31c0,2.4-1.2,3.2-2.8,3.2c-0.4,0-1-0.1-1.3-0.2l0.2-1c0.2,0.1,0.6,0.2,1,0.2
					c1.1,0,1.7-0.5,1.7-2.3V24.9z"/>
				<path class="st9" d="M11.8,31.2l-1,2.9H9.7l3.1-9.2h1.4l3.1,9.2h-1.3l-1-2.9H11.8z M14.8,30.2l-0.9-2.6
					c-0.2-0.6-0.3-1.1-0.5-1.7h0c-0.1,0.5-0.3,1.1-0.5,1.7l-0.9,2.7H14.8z"/>
				<path class="st9" d="M25,33.7c-0.4,0.2-1.3,0.4-2.4,0.4c-2.6,0-4.5-1.6-4.5-4.7c0-2.9,1.9-4.8,4.8-4.8c1.1,0,1.9,0.2,2.2,0.4
					l-0.3,1c-0.4-0.2-1.1-0.4-1.9-0.4c-2.2,0-3.6,1.4-3.6,3.8c0,2.2,1.3,3.7,3.5,3.7c0.7,0,1.5-0.2,1.9-0.4L25,33.7z"/>
				<path class="st10" d="M29.7,25c0.6-0.1,1.5-0.2,2.3-0.2c1.3,0,2.1,0.2,2.7,0.7c0.5,0.4,0.7,1,0.7,1.7c0,1.2-0.8,2-1.7,2.3v0
					c0.7,0.2,1.1,0.9,1.3,1.9c0.3,1.3,0.5,2.2,0.7,2.5h-1.2c-0.1-0.3-0.4-1-0.6-2.2c-0.3-1.3-0.8-1.7-1.8-1.8h-1.1v4h-1.2V25z
					 M30.9,29.2h1.2c1.3,0,2.1-0.7,2.1-1.7c0-1.2-0.9-1.7-2.1-1.7c-0.6,0-1,0.1-1.2,0.1V29.2z"/>
				<path class="st10" d="M37.8,31c0,1.6,1.1,2.3,2.3,2.3c0.9,0,1.4-0.1,1.8-0.3l0.2,0.9c-0.4,0.2-1.1,0.4-2.2,0.4
					c-2,0-3.2-1.3-3.2-3.3c0-2,1.2-3.6,3.1-3.6c2.2,0,2.7,1.9,2.7,3.1c0,0.2,0,0.4,0,0.6H37.8z M41.3,30.1c0-0.8-0.3-1.9-1.7-1.9
					c-1.2,0-1.7,1.1-1.8,1.9H41.3z"/>
				<path class="st10" d="M48.8,33.8c-0.3,0.2-1,0.4-1.9,0.4c-2,0-3.3-1.4-3.3-3.4c0-2,1.4-3.5,3.5-3.5c0.7,0,1.3,0.2,1.7,0.3
					l-0.3,0.9c-0.3-0.2-0.7-0.3-1.4-0.3c-1.5,0-2.3,1.1-2.3,2.5c0,1.5,1,2.5,2.3,2.5c0.7,0,1.1-0.2,1.5-0.3L48.8,33.8z"/>
				<path class="st10" d="M50.4,29.5c0-0.8,0-1.4-0.1-2.1h1l0,1.3h0.1c0.3-0.9,1-1.4,1.8-1.4c0.1,0,0.2,0,0.3,0v1.1
					c-0.1,0-0.2,0-0.4,0c-0.8,0-1.4,0.6-1.6,1.5c0,0.2-0.1,0.4-0.1,0.6V34h-1.2V29.5z"/>
				<path class="st10" d="M60.5,32.3c0,0.7,0,1.3,0.1,1.8h-1.1L59.4,33h0c-0.3,0.5-1,1.2-2.2,1.2c-1,0-2.3-0.6-2.3-2.9v-3.9h1.2v3.7
					c0,1.3,0.4,2.1,1.5,2.1c0.8,0,1.4-0.6,1.6-1.1c0.1-0.2,0.1-0.4,0.1-0.6v-4h1.2V32.3z"/>
				<path class="st10" d="M63.9,25.6c0,0.4-0.3,0.7-0.8,0.7c-0.4,0-0.7-0.3-0.7-0.7c0-0.4,0.3-0.7,0.7-0.7
					C63.7,24.9,63.9,25.2,63.9,25.6z M62.6,34v-6.6h1.2V34H62.6z"/>
				<path class="st10" d="M67.4,25.9v1.6h1.7v0.9h-1.7v3.6c0,0.8,0.2,1.3,0.9,1.3c0.3,0,0.5,0,0.7-0.1L69,34
					c-0.2,0.1-0.6,0.2-1.1,0.2c-0.6,0-1-0.2-1.3-0.5c-0.3-0.4-0.5-0.9-0.5-1.7v-3.6h-1v-0.9h1v-1.2L67.4,25.9z"/>
				<path class="st10" d="M70.6,29.2c0-0.7,0-1.2-0.1-1.8h1l0.1,1.1h0c0.4-0.6,1-1.2,2.1-1.2c0.9,0,1.6,0.5,1.9,1.3h0
					c0.2-0.4,0.5-0.7,0.7-0.9c0.4-0.3,0.8-0.5,1.5-0.5c0.9,0,2.2,0.6,2.2,2.9V34h-1.2v-3.7c0-1.3-0.5-2-1.4-2
					c-0.7,0-1.2,0.5-1.4,1.1c-0.1,0.2-0.1,0.4-0.1,0.6V34h-1.2v-4c0-1-0.5-1.8-1.4-1.8c-0.8,0-1.3,0.6-1.5,1.2
					c-0.1,0.2-0.1,0.4-0.1,0.6v4h-1.2V29.2z"/>
				<path class="st10" d="M82.7,31c0,1.6,1.1,2.3,2.3,2.3c0.9,0,1.4-0.1,1.8-0.3l0.2,0.9c-0.4,0.2-1.1,0.4-2.2,0.4
					c-2,0-3.2-1.3-3.2-3.3c0-2,1.2-3.6,3.1-3.6c2.2,0,2.7,1.9,2.7,3.1c0,0.2,0,0.4,0,0.6H82.7z M86.3,30.1c0-0.8-0.3-1.9-1.7-1.9
					c-1.2,0-1.7,1.1-1.8,1.9H86.3z"/>
				<path class="st10" d="M89,29.2c0-0.7,0-1.2-0.1-1.8H90l0.1,1.1h0c0.3-0.6,1.1-1.2,2.2-1.2c0.9,0,2.3,0.5,2.3,2.8V34h-1.2v-3.8
					c0-1.1-0.4-1.9-1.5-1.9c-0.8,0-1.4,0.6-1.6,1.2c-0.1,0.2-0.1,0.4-0.1,0.6v4H89V29.2z"/>
				<path class="st10" d="M98.1,25.9v1.6h1.7v0.9h-1.7v3.6c0,0.8,0.2,1.3,0.9,1.3c0.3,0,0.5,0,0.7-0.1l0.1,0.9
					c-0.2,0.1-0.6,0.2-1.1,0.2c-0.6,0-1-0.2-1.3-0.5C97.1,33.3,97,32.7,97,32v-3.6h-1v-0.9h1v-1.2L98.1,25.9z"/>
			</g>
		</g>
	</g>
</g>
<g id="Green" class="st0">
	<g class="st1">
		<path class="st11" d="M17.7,2c0.1,0.2,0.3,0.1,0.4,0.1c0.8,0,1.7,0.2,2.5,0.3c1,0.2,2,0.5,2.9,0.9c0.9,0.4,1.7,0.8,2.5,1.3
			c0.8,0.5,1.6,1.1,2.3,1.7c0.2,0.2,0.4,0.5,0.7,0.7c1,1,1.9,2.2,2.7,3.5c0.1,0.1,0.2,0.3,0.3,0.4c-1.3,0.8-2.6,1.6-3.9,2.4
			c-0.2,0-0.2-0.1-0.3-0.2c-0.4-0.8-1-1.6-1.6-2.3c-0.9-1-1.9-1.8-3.1-2.6c-0.9-0.6-1.9-1-2.9-1.3c-0.5-0.1-0.9-0.2-1.4-0.3
			c-0.9-0.1-1.8-0.1-2.7-0.1c-0.5,0-0.9,0.1-1.4,0.2c-1.1,0.2-2.1,0.6-3.1,1.1c-0.9,0.4-1.6,1-2.4,1.6c-1.2,1-2.1,2.2-2.8,3.6
			c-0.5,1-0.8,2-1,3.1c-0.1,0.7-0.2,1.4-0.2,2.1c-0.1,1.4,0.2,2.8,0.7,4.1c0.4,1.1,1,2.2,1.7,3.1C8,26,8.4,26.4,8.8,26.8
			c1.6,1.5,3.4,2.6,5.6,3.1c0.5,0.1,1,0.2,1.6,0.2c0.4,0,0.8,0.1,1.2,0.1c1.7-0.1,3.2-0.4,4.8-1.1c0.9-0.4,1.7-0.9,2.4-1.5
			c0.5-0.4,1.1-0.9,1.5-1.4c0.4-0.5,0.8-1,1.2-1.6c0.4-0.6,0.7-1.3,1-2c0-0.1,0.1-0.1,0-0.3c-2.9,0-5.7,0-8.7,0c0-1.5,0-2.9,0-4.3
			c0,0,0,0,0,0c0,0,0,0,0,0c4.7,0,9.5,0,14.2,0c0,0,0.1,0,0.1,0c0,0,0.1,0,0.1,0.1c0.5,2.8,1,5.6,1.5,8.4c0.5,2.8,1,5.6,1.5,8.4
			c-1.5,0-2.8,0-4.2,0c-0.2-1.3-0.5-2.6-0.7-3.9c-0.2-1.3-0.4-2.6-0.7-3.9c-0.1,0-0.2,0.1-0.2,0.2c-0.5,0.7-1,1.4-1.5,2
			c-0.8,0.9-1.8,1.7-2.8,2.4c-1.5,1-3.1,1.8-4.8,2.3c-0.8,0.2-1.7,0.4-2.6,0.5c-0.9,0.1-1.8,0.2-2.7,0.2c-0.7,0-1.4-0.1-2.1-0.2
			c-0.7-0.1-1.5-0.2-2.2-0.4c-1-0.2-2-0.6-2.9-1c-0.8-0.4-1.6-0.8-2.3-1.3c-0.5-0.4-1-0.8-1.5-1.2c-0.4-0.3-0.7-0.6-1.1-1
			c-0.8-0.9-1.5-1.8-2.2-2.8c-0.4-0.7-0.8-1.4-1.1-2.2C1,23.8,0.7,23,0.5,22.1c-0.2-0.8-0.3-1.5-0.4-2.3c0,0-0.1-0.1-0.1-0.1
			c0-0.9,0-1.7,0-2.6c0.1,0,0.1-0.1,0.1-0.2c0-0.3,0.1-0.7,0.1-1c0.2-1,0.4-2,0.8-3c0.4-1.1,1-2.2,1.6-3.3c0.4-0.7,0.9-1.4,1.5-2
			c0.4-0.4,0.8-0.9,1.2-1.3c0.6-0.5,1.2-1,1.8-1.4c0.8-0.5,1.6-1,2.4-1.4c0.9-0.4,1.7-0.7,2.6-1c0.6-0.2,1.2-0.3,1.8-0.4
			c0.4-0.1,0.8-0.2,1.2-0.1c0.1,0,0.2,0,0.2-0.1C16.2,2,17,2,17.7,2z"/>
		<path class="st12" d="M56.2,35.1c0-0.1-0.1-0.1-0.2-0.1c-1.4,0-2.7-0.4-3.9-1c-1-0.5-1.8-1.2-2.5-2.1c-0.9-1.1-1.5-2.4-1.8-3.8
			c-0.1-0.4-0.2-0.8-0.1-1.1c0-0.2,0-0.3-0.1-0.5c0,0,0-0.1,0-0.1c0.1-0.4,0-0.9,0.1-1.3c0.1-0.7,0.3-1.4,0.5-2c0.4-1,0.9-2,1.7-2.8
			c0.7-0.7,1.4-1.3,2.2-1.7c1-0.5,2-0.8,3-0.9c0.5-0.1,1-0.1,1.6-0.1c1.1,0.1,2.2,0.3,3.2,0.7c0.9,0.4,1.7,0.9,2.3,1.6
			c1,1,1.7,2.2,2.2,3.5c0.3,0.9,0.5,1.8,0.6,2.8c0,0.4,0.1,0.8,0.1,1.2c0,0,0,0,0,0c0,0,0,0,0,0c0,0-0.1,0-0.1,0c0,0-0.1,0-0.1,0
			c-4.7,0-9.4,0-14,0c0,0,0,0,0,0c0.1,1,0.5,1.9,1.1,2.6c0.4,0.6,1,1.1,1.6,1.4c0.7,0.4,1.4,0.6,2.2,0.8c0.5,0.1,1,0.1,1.5,0.1
			c1-0.1,1.9-0.4,2.8-0.9c0.5-0.3,1-0.8,1.5-1.1c0.2-0.2,0.3-0.5,0.6-0.6c0.7,0.6,1.5,1.2,2.2,1.8c-1.1,1.2-2.2,2.2-3.6,2.8
			c-0.7,0.3-1.5,0.6-2.3,0.7c-0.3,0.1-0.6,0.1-1,0.1c-0.1,0-0.1,0-0.2,0.1C57,35.1,56.6,35.1,56.2,35.1z M50.8,24.9
			c0.1,0,0.2,0,0.2,0c3.6,0,7.1,0,10.7,0c0,0,0,0,0,0c0,0,0,0,0,0c0.1-0.2,0-0.3-0.1-0.5c-0.2-1.1-0.7-2-1.5-2.7
			c-0.9-0.8-1.9-1.3-3.1-1.4c-1-0.1-2-0.1-3,0.3c-0.9,0.4-1.7,0.9-2.2,1.7C51.3,23.1,50.9,23.9,50.8,24.9z"/>
		<path class="st12" d="M75,35.1c0-0.1-0.1-0.1-0.2-0.1c-1.3,0-2.6-0.4-3.8-0.9c-0.5-0.2-1-0.6-1.4-0.9c-0.7-0.5-1.3-1.2-1.7-1.9
			c-0.6-1-1.1-2-1.3-3.2c-0.2-0.9-0.2-1.8-0.2-2.7c0.1-1.5,0.6-2.9,1.4-4.2c0.8-1.2,1.8-2.2,3.1-2.8c0.9-0.5,1.9-0.7,3-0.9
			c0.6-0.1,1.2-0.1,1.8-0.1c0.9,0.1,1.8,0.3,2.7,0.6c1.2,0.5,2.2,1.2,3,2.1c0.4,0.4,0.7,0.9,1,1.5c0.6,1,0.9,2,1.2,3.1
			c0.2,0.8,0.3,1.6,0.2,2.5c0,0,0,0.1,0,0.2c-4.7,0-9.5,0-14.1,0c-0.1,0.1-0.1,0.2-0.1,0.2c0.5,2.1,1.7,3.6,3.8,4.3
			c0.9,0.3,1.8,0.4,2.7,0.4c1.2-0.1,2.2-0.5,3.2-1.2c0.6-0.4,1.2-0.9,1.7-1.5c0.8,0.6,1.5,1.2,2.2,1.8c0,0.1-0.1,0.2-0.2,0.3
			c-0.7,0.8-1.5,1.5-2.4,2.1c-1,0.6-2.1,1-3.2,1.2C76.9,35,76.6,35,76.2,35c-0.1,0-0.2,0-0.2,0.1C75.7,35.1,75.3,35.1,75,35.1z
			 M69.5,24.9c0.8,0.1,10.6,0,10.9,0c0-0.2,0-0.3,0-0.5c-0.3-1.3-0.9-2.4-2.1-3.2c-0.8-0.6-1.6-0.9-2.6-1c-0.7-0.1-1.4-0.1-2.1,0.1
			c-0.7,0.1-1.4,0.4-1.9,0.8c-1.1,0.8-1.8,1.9-2.1,3.2C69.6,24.5,69.5,24.7,69.5,24.9z"/>
		<path class="st12" d="M99.7,34.4c-0.5,0-1,0-1.4,0c-0.6-0.1-1.3,0-1.9-0.1c-0.1-0.2-0.1-0.3-0.1-0.5c0-3.2,0-6.4,0-9.6
			c0-0.5-0.1-1.1-0.2-1.6c-0.3-0.9-0.9-1.5-1.8-1.7c-1.1-0.3-2.2-0.3-3.3,0.2c-0.9,0.4-1.2,1.2-1.4,2c-0.1,0.5-0.1,1.1-0.1,1.7
			c0,1.9,0,3.8,0,5.7c0,1.2-0.1,2.5-0.1,3.7c-0.3,0.1-2.5,0.1-3.1,0c-0.1-0.1-0.1-0.2-0.1-0.3c0-0.1,0-0.2,0-0.3
			c0-5.2,0-10.4,0-15.6c0-0.2,0-0.4,0.1-0.5c0.3-0.1,2.3-0.1,3.2-0.1c0.1,0.4,0.1,0.7,0.1,1.1c0.1,0,0.1,0,0.1,0
			c0.5-0.6,1.1-0.8,1.9-0.9c0.6-0.1,1.2-0.2,1.8-0.2c1,0,1.9,0.2,2.8,0.6c0.8,0.3,1.5,0.7,2,1.3c0.6,0.7,1,1.4,1.3,2.3
			c0.2,0.7,0.4,1.4,0.4,2.2c0,0,0,0.1,0.1,0.1C99.7,27.4,99.7,30.9,99.7,34.4z"/>
		<path class="st12" d="M42.9,19.4c1-1.3,2.2-2.1,4-2c0,1.1,0,2.3,0,3.4c-0.3,0-0.6,0.1-0.9,0.1c-1.2,0.1-2,0.7-2.6,1.7
			c-0.4,0.7-0.5,1.4-0.5,2.2c0,3,0,6.1,0,9.1c0,0.2,0,0.3,0,0.6c-1.1,0-2.2,0-3.3,0c0-5.7,0-11.4,0-17c0.3-0.1,2.9-0.1,3.3,0
			c0.1,0.3,0,0.6,0.1,0.9C42.9,18.8,42.9,19.1,42.9,19.4z"/>
	</g>
</g>
<g id="ジョブセンスリンク" class="st0">
	<path class="st13" d="M17.1,22.7v1.7h5.1v3.2h0c0,0,0,0,0,0.1c0,0.7-0.6,1.2-1.2,1.2h-2.1v1.7h2.1c0.9,0,1.8-0.4,2.3-1.1
		c0.4-0.5,0.6-1.1,0.7-1.8v-5H17.1z"/>
	<path class="st13" d="M14.5,26v1h1.8v0.7h-1.8v1h1.8v0l0,0v0.2c0,0.4-0.3,0.7-0.7,0.7h-1.1v1h1.1c0.9,0,1.7-0.7,1.7-1.7V26H14.5z"
		/>
	<path class="st13" d="M4.7,25.8c-0.1,0.8,0.4,1.5,1.1,1.7c0.8,0.1,1.5-0.4,1.7-1.1l0,0c0.1-0.8-0.4-1.5-1.1-1.7
		C5.6,24.5,4.9,25,4.7,25.8z M5.9,27.1c-0.6-0.1-1-0.7-0.9-1.3c0.1-0.6,0.7-1,1.3-0.9c0.5,0.1,0.9,0.6,0.9,1.1c0,0.1,0,0.1,0,0.2
		C7.1,26.9,6.5,27.3,5.9,27.1z"/>
	<circle class="st13" cx="5.8" cy="26" r="0.9"/>
	<path class="st13" d="M7,22.4c-0.1,0.8,0.4,1.5,1.1,1.7c0.4,0.1,0.8,0,1.1-0.2c0.3-0.2,0.5-0.5,0.6-0.9c0-0.1,0-0.2,0-0.3
		c0-0.7-0.5-1.3-1.2-1.4C7.9,21.1,7.1,21.6,7,22.4z M8.2,23.7c-0.6-0.1-1-0.7-0.9-1.3c0.1-0.6,0.7-1,1.3-0.9c0.6,0.1,1,0.7,0.9,1.3
		l0,0c-0.1,0.3-0.2,0.5-0.5,0.7C8.8,23.7,8.5,23.8,8.2,23.7z M9.8,22.9L9.8,22.9L9.8,22.9L9.8,22.9z"/>
	<circle class="st13" cx="8.1" cy="22.6" r="0.9"/>
	<path class="st13" d="M11.2,22.7v4.9c0,0.7-0.6,1.3-1.3,1.3H6.1v1.7h3.8c1.6,0,3-1.3,3-3v-4.9H11.2z"/>
	<circle class="st13" cx="37.5" cy="23.7" r="1.1"/>
	<path class="st13" d="M50.5,27.6L50.5,27.6l0-3.9h0v-1.1h-5.1v1.7h3.3v3.2c0,0.7-0.6,1.2-1.2,1.2h-2.1v1.7h2.1
		c0.8,0,1.6-0.3,2.1-0.9c0.5,0.5,1.3,0.9,2.1,0.9l0-1.7C51,28.8,50.5,28.3,50.5,27.6z"/>
	<path class="st13" d="M31.1,28.8c-0.7,0-1.3-0.6-1.3-1.3v-3.2h3.3v3h1.7v-3l0,0v-1.7h-5.1v-1.5h-1.7v1.5h-1.7v1.7h1.7l0,0l0,0v3.2
		c0,1.6,1.3,3,3,3h3.8v-1.7H31.1z"/>
	<path class="st13" d="M43.8,23.8v-1.1h-1.7v1.7l0,0v3.2c0,0.7-0.6,1.3-1.2,1.3H37v1.7h3.8c1.6,0,3-1.3,3-3V23.8L43.8,23.8z"/>
	<circle class="st13" cx="12" cy="21.1" r="0.9"/>
	<circle class="st13" cx="14.5" cy="21.1" r="0.9"/>
	<circle class="st13" cx="23" cy="21.1" r="0.9"/>
	<circle class="st13" cx="25.4" cy="21.1" r="0.9"/>
	<path class="st14" d="M0.2,23c-0.1,0.3,0.1,0.5,0.3,0.6l2.6,0.7c0.3,0.1,0.5-0.1,0.6-0.3c0.1-0.2-0.1-0.5-0.3-0.6l-2.6-0.7
		C0.5,22.6,0.2,22.7,0.2,23z"/>
	<path class="st14" d="M5.3,16.6C5,16.7,5,17,5.1,17.2l1.3,2.3c0.1,0.2,0.4,0.3,0.6,0.2c0.2-0.1,0.3-0.4,0.2-0.6l-1.3-2.3
		C5.8,16.5,5.5,16.4,5.3,16.6z"/>
	<path class="st14" d="M2.2,19.1C2,19.3,2,19.6,2.2,19.8l2.1,1.7c0.2,0.2,0.5,0.1,0.7-0.1c0.2-0.2,0.1-0.5-0.1-0.7L2.8,19
		C2.6,18.9,2.3,18.9,2.2,19.1z"/>
	<g class="st1">
		<circle class="st15" cx="72.9" cy="18.4" r="1.9"/>
		<path class="st15" d="M84.1,18.4v-2H81v3.1h0v5.7c0,1.2-1,2.2-2.2,2.2h-7.8v3.1h7.8c2.9,0,5.3-2.4,5.3-5.3L84.1,18.4L84.1,18.4z"
			/>
	</g>
	<g class="st1">
		<path class="st15" d="M64.4,16.4v8.8c0,1.2-1,2.2-2.2,2.2h-6.7v3.1h6.7c2.9,0,5.3-2.4,5.3-5.3v-8.8H64.4z"/>
		<rect x="55.4" y="16.4" class="st15" width="3.1" height="6.9"/>
	</g>
	<g class="st1">
		<path class="st15" d="M93.1,19.5l0-3.1h-3v2.4c0,1.2-1,2.2-2.2,2.2h-0.3V24h0.3h0C90.6,24,92.8,22.1,93.1,19.5z"/>
		<path class="st15" d="M94,16.4v3.1h2.8v5.8c0,1.2-1,2.2-2.2,2.2H88v3.1h6.7c2.9,0,5.3-2.4,5.3-5.3l0-8.9H94z"/>
	</g>
</g>
<g id="イーキャリア" class="st0">
	<g class="st1">
		<polygon class="st16" points="17.8,19.3 16.8,22.8 32.3,22.8 33.3,19.3 		"/>
		<polygon class="st16" points="45.9,13.6 42.2,13.6 41.7,16.1 36,16.1 35.1,19.3 41,19.3 40.5,21.7 34.1,21.7 33.2,24.9 39.8,24.9 
			38.9,29 42.6,29 43.5,24.9 49.6,24.9 50.5,21.7 44.2,21.7 44.7,19.3 50.7,19.3 51.6,16.1 45.4,16.1 		"/>
		<path class="st16" d="M57.8,17.8h-2.7l-0.3,1.5H53l-0.7,2.4h2.1L53.2,29l2.7,0l1.2-7.2h4c-0.6,1.2-1.5,1.8-2.9,2l-0.7,2.6
			c4.8-0.3,6.5-4.3,7.2-7.1h-7.2L57.8,17.8z"/>
		<polygon class="st16" points="71.7,14.1 68.1,14.1 65.8,22.6 69.3,22.6 		"/>
		<path class="st16" d="M78.5,14.1L76.3,22c-1,3.1-2.8,3.8-5.3,3.8h-3.2L67,29h4.6c5-0.3,7.3-3.4,8.3-7l2.2-7.9H78.5z"/>
		<path class="st16" d="M83.1,17.3h12.8c-0.7,1.7-1.4,2.6-5,2.6l0.3-1.1h-3.4c-1.3,6.2-3.8,6.7-6.8,7L80.2,29
			c4.8-0.1,8.4-2.1,9.7-5.8c4.3-0.4,8.4-0.4,10.1-9.1H84L83.1,17.3z"/>
		<path class="st16" d="M18.1,14.1C9,14.1,9,19.7,1.1,19.7L0.2,23c3.8,0,5.5-0.6,7.6-1.8L5.6,29h3.6l2.8-10.1
			c1.2-0.7,2.8-1.7,5.3-1.5L18.1,14.1z"/>
	</g>
</g>
<g id="マイナビ転職エージェントサーチ" class="st0">
	<g class="st1">
		<g>
			<g>
				<path class="st17" d="M47.5,21.3V21h-0.6c-0.1,0-0.3,0-0.3-0.3c0-0.3,0.2-0.3,0.3-0.3h0.6v-0.2c0-0.2,0.2-0.2,0.3-0.2
					c0.2,0,0.3,0.1,0.3,0.2v0.2h0.6c0.1,0,0.3,0,0.3,0.3c0,0.3-0.2,0.3-0.3,0.3H48v0.3h0.2c0.3,0,0.6,0.1,0.6,0.5v0.9
					c0,0.4-0.2,0.5-0.5,0.5H48v0.3h0.6c0.1,0,0.3,0,0.3,0.3c0,0.3-0.2,0.3-0.3,0.3H48v0.5c0,0.1,0,0.3-0.3,0.3
					c-0.3,0-0.3-0.2-0.3-0.3v-0.5h-0.6c-0.1,0-0.3,0-0.3-0.3c0-0.3,0.2-0.3,0.3-0.3h0.6v-0.3h-0.2c-0.4,0-0.5-0.1-0.5-0.5v-0.9
					c0-0.4,0.2-0.5,0.5-0.5H47.5z M47.5,22.1v-0.4h-0.2c-0.1,0-0.1,0-0.1,0.1v0.2H47.5z M47.5,22.5h-0.3v0.3c0,0.1,0,0.1,0.1,0.1
					h0.2V22.5z M48,22.1h0.3v-0.2c0-0.1,0-0.1-0.1-0.1H48V22.1z M48,22.5v0.4h0.2c0.1,0,0.1,0,0.1-0.1v-0.3H48z M49.1,22.3
					c-0.1,0-0.3,0-0.3-0.3c0-0.2,0.1-0.3,0.3-0.3h1.8c0.1,0,0.3,0,0.3,0.3c0,0.2-0.1,0.3-0.3,0.3H50c-0.1,0.5-0.2,1.2-0.4,1.7
					c0.3,0,0.5-0.1,0.8-0.1c0-0.1-0.1-0.3-0.1-0.5c-0.1-0.3-0.1-0.4-0.1-0.5c0-0.2,0.2-0.2,0.3-0.2c0.2,0,0.2,0,0.4,0.5
					c0.1,0.4,0.3,1.1,0.3,1.3c0,0.3-0.3,0.3-0.3,0.3c-0.2,0-0.3-0.1-0.3-0.4c-0.3,0.1-1.4,0.2-1.6,0.2c-0.3,0-0.3-0.3-0.3-0.3
					c0-0.3,0.2-0.3,0.3-0.3c0.1-0.3,0.3-1.1,0.3-1.7H49.1z M49.3,20.9c-0.1,0-0.3,0-0.3-0.3c0-0.2,0.1-0.3,0.3-0.3h1.6
					c0.1,0,0.3,0,0.3,0.3c0,0.2-0.1,0.3-0.3,0.3H49.3z"/>
				<path class="st17" d="M54.1,24.5c-0.5,0-0.6-0.1-0.6-0.6v-1c0-0.5,0.1-0.6,0.6-0.6h0.3c0.5,0,0.6,0.1,0.6,0.6v1
					c0.1-0.1,0.2-0.2,0.3-0.3c0-0.1-0.1-0.6-0.1-1.5h-1.6c-0.1,0-0.2-0.1-0.2-0.1v2.5c0,0.1,0,0.3-0.2,0.3c-0.2,0-0.3-0.1-0.3-0.3
					v-0.5c-0.1,0-0.7,0.2-0.8,0.2c-0.2,0-0.2-0.2-0.2-0.3c0-0.2,0.1-0.2,0.2-0.3v-2.8c-0.2,0-0.2-0.1-0.2-0.3c0-0.3,0.2-0.3,0.3-0.3
					h1.2c0.1,0,0.3,0,0.3,0.4c0,0,0.1-0.1,0.2-0.1H54v-0.2c0-0.2,0.1-0.2,0.3-0.2c0.1,0,0.3,0,0.3,0.2v0.2h0.3c0.1,0,0.2,0,0.2,0.3
					c0,0.3-0.1,0.3-0.2,0.3c0,0.2,0,0.3-0.1,0.6h0.4c0-0.4,0-0.9,0-1.3c0-0.1,0-0.3,0.3-0.3c0.1,0,0.2,0,0.2,0.1c0,0.1,0,0.1,0,0.4
					v1h0.6c0.1,0,0.3,0,0.3,0.3c0,0.2-0.1,0.3-0.3,0.3h-0.6c0,0.3,0,0.5,0.1,0.8c0-0.1,0.2-0.4,0.2-0.5c0.1-0.1,0.1-0.1,0.2-0.1
					c0.1,0,0.3,0,0.3,0.2c0,0.1-0.3,0.7-0.6,1.2c0,0.1,0.1,0.3,0.2,0.3c0.1,0,0.1-0.1,0.1-0.2c0-0.1,0.1-0.2,0.2-0.2
					c0.1,0,0.3,0,0.3,0.2c0,0.2-0.2,0.5-0.2,0.6c-0.1,0.2-0.3,0.3-0.4,0.3c-0.3,0-0.5-0.3-0.6-0.5c-0.2,0.2-0.4,0.4-0.5,0.4
					c0,0-0.1,0.1-0.2,0.1c-0.1,0-0.3-0.1-0.3-0.3H54.1z M52.8,20.8h-0.3v0.5h0.3V20.8z M52.8,21.9h-0.3v0.5h0.3V21.9z M52.5,23.6
					c0.1,0,0.2,0,0.3-0.1V23h-0.3V23.6z M53.7,21.7c0-0.2,0-0.3-0.1-0.6c-0.2,0-0.2-0.3-0.2-0.3c0,0-0.1,0-0.1,0.1v0.9
					c0-0.1,0.1-0.1,0.2-0.1H53.7z M54,23.2h0.5V23c0-0.1,0-0.1-0.1-0.1h-0.3c-0.1,0-0.1,0-0.1,0.1V23.2z M54,23.6v0.2
					c0,0.1,0,0.1,0.1,0.1h0.3c0.1,0,0.1,0,0.1-0.1v-0.2H54z M54.1,21.1c0,0.1,0.1,0.5,0.1,0.6h0.2c0-0.1,0.1-0.4,0.1-0.6H54.1z
					 M56.2,21.5c-0.2,0-0.2-0.1-0.2-0.3c-0.1-0.1-0.1-0.4-0.2-0.5c0,0,0-0.1,0-0.1c0-0.1,0.2-0.2,0.3-0.2c0.1,0,0.2,0.1,0.2,0.2
					c0.1,0.2,0.2,0.6,0.2,0.7C56.5,21.4,56.3,21.5,56.2,21.5z"/>
				<path class="st18" d="M62.6,23.7c0.1,0,0.3,0,0.3,0.3c0,0.3-0.2,0.3-0.3,0.3h-3.7c-0.1,0-0.3,0-0.3-0.3c0-0.3,0.2-0.3,0.3-0.3
					h1.5v-2.4h-1.2c-0.1,0-0.3,0-0.3-0.3c0-0.3,0.2-0.3,0.3-0.3h3.2c0.1,0,0.3,0,0.3,0.3c0,0.3-0.2,0.3-0.3,0.3h-1.2v2.4H62.6z"/>
				<path class="st18" d="M63.6,22.8c-0.1,0-0.4,0-0.4-0.3c0-0.3,0.2-0.3,0.4-0.3h3.7c0.1,0,0.4,0,0.4,0.3c0,0.3-0.2,0.3-0.4,0.3
					H63.6z"/>
				<path class="st18" d="M69.3,22.7c-0.2-0.1-0.3-0.1-1-0.4c-0.1-0.1-0.3-0.1-0.3-0.3c0-0.1,0.1-0.3,0.3-0.3c0.2,0,0.7,0.2,1,0.3
					c0.4,0.2,0.5,0.2,0.5,0.5c0,0.2-0.1,0.4-0.3,0.4C69.5,22.8,69.5,22.8,69.3,22.7z M72.3,21.5c0,0.2-0.4,1.4-1.4,2.2
					c-0.9,0.8-2.1,0.9-2.3,0.9c-0.3,0-0.3-0.3-0.3-0.4c0-0.3,0.2-0.3,0.4-0.3c0.4-0.1,1.2-0.2,1.9-0.8c0.5-0.5,0.8-1.1,0.9-1.3
					c0.2-0.5,0.2-0.5,0.3-0.5c0,0,0.1-0.1,0.2-0.1C72,21.2,72.3,21.2,72.3,21.5z M69.7,21.4c-0.2-0.1-0.3-0.1-1-0.4
					c-0.1-0.1-0.3-0.1-0.3-0.3c0-0.1,0.1-0.3,0.3-0.3c0.2,0,0.7,0.2,1,0.3c0.4,0.2,0.5,0.2,0.5,0.5c0,0.2-0.1,0.4-0.3,0.4
					C70,21.5,69.9,21.5,69.7,21.4z M71.4,20.4c0,0,0-0.1,0-0.1c0-0.1,0.1-0.1,0.2-0.1c0.1,0,0.1,0.1,0.2,0.3
					c0.1,0.1,0.1,0.3,0.1,0.4c0,0.2-0.2,0.2-0.2,0.2c0,0-0.1,0-0.1-0.1c0,0-0.1-0.2-0.1-0.3C71.4,20.6,71.4,20.4,71.4,20.4z
					 M71.9,20.3C71.9,20.3,71.9,20.2,71.9,20.3c0-0.2,0.1-0.2,0.2-0.2c0.1,0,0.1,0.1,0.2,0.2c0.1,0.1,0.1,0.3,0.1,0.4
					c0,0.1-0.1,0.2-0.2,0.2c-0.1,0-0.1-0.1-0.2-0.1c0,0-0.1-0.2-0.1-0.2C72,20.5,72,20.3,71.9,20.3z"/>
				<path class="st18" d="M76.3,23.8c0.1,0,0.3,0,0.3,0.3c0,0.3-0.2,0.3-0.3,0.3h-3c-0.1,0-0.3,0-0.3-0.3c0-0.3,0.2-0.3,0.3-0.3h1.2
					V22h-0.9c-0.1,0-0.3,0-0.3-0.3c0-0.3,0.2-0.3,0.3-0.3h2.6c0.1,0,0.3,0,0.3,0.3c0,0.3-0.2,0.3-0.3,0.3h-1v1.8H76.3z"/>
				<path class="st18" d="M77.8,20.5c0.1,0,0.2,0,0.6,0.2c1.1,0.6,1.1,0.7,1.1,0.9c0,0.2-0.2,0.4-0.3,0.4c-0.1,0-0.2-0.1-0.5-0.3
					c-0.3-0.2-0.6-0.4-0.9-0.5c-0.1-0.1-0.2-0.1-0.2-0.3C77.5,20.7,77.7,20.6,77.8,20.5C77.8,20.5,77.8,20.5,77.8,20.5z M81.7,21.3
					c0,0.3-0.4,1.3-0.9,1.9c-0.7,0.8-1.4,1-2,1.2c-0.3,0.1-0.7,0.1-0.8,0.1c-0.3,0-0.4-0.3-0.4-0.4c0-0.3,0.1-0.3,0.4-0.3
					c1.4-0.2,2.4-0.7,3-2.5c0.1-0.3,0.1-0.3,0.3-0.3c0,0,0.1,0,0.1,0C81.6,21,81.7,21.1,81.7,21.3z"/>
				<path class="st18" d="M83.4,24.4c0,0.1,0,0.3-0.4,0.3c-0.3,0-0.4-0.2-0.4-0.3v-3.8c0-0.1,0-0.4,0.3-0.4c0.3,0,0.4,0.2,0.4,0.4
					v0.9c0.7,0.2,1.3,0.5,2,0.8c0.4,0.2,0.4,0.3,0.4,0.4c0,0.2-0.1,0.4-0.3,0.4c-0.1,0-0.2-0.1-0.4-0.2c-0.3-0.2-0.7-0.4-1-0.5
					c-0.3-0.1-0.5-0.2-0.6-0.3V24.4z"/>
			</g>
			<g>
				<g>
					<g>
						<g>
							<circle class="st7" cx="16.6" cy="23.7" r="1.1"/>
						</g>
						<path class="st7" d="M18.4,16c0.2-0.4,0-0.9-0.5-1.1c-0.5-0.2-0.9,0.1-1.1,0.5c-0.4,0.7-2.3,4.4-2.7,5
							c-0.3,0.6-0.7,1.5-1.1,1.4c-0.3-0.1-0.7-1.5-0.8-1.9c-0.3-0.7-0.8-1.5-1.8-1.3c-0.7,0.2-1.1,0.7-1.8,2
							c-0.4,0.7-0.6,1.1-0.9,1.6c-0.7,0.9-1.1-0.6-1.3-1.4c-0.3-1.1-0.8-2.5-2-2.5c-0.7,0-1.4,0.4-2.3,1.8c-0.5,0.8-1.7,3.2-1.9,3.6
							c-0.2,0.4,0,0.9,0.4,1.1c0.4,0.2,0.9,0,1.1-0.4c0.8-1.3,1.1-1.8,1.5-2.4c0.5-0.6,1.1-1.2,1.6,0.3c0.3,1,0.8,2.6,2.3,2.6
							c0.9,0,1.8-0.7,2.2-1.4c0.5-0.8,0.6-1.2,1-1.6c0.2-0.2,0.5-0.3,0.7,0.3c0.2,0.6,0.8,2.3,1.7,2.7c1.3,0.5,2.5-2.1,2.9-2.9
							C15.9,21.2,18.2,16.3,18.4,16z"/>
					</g>
					<g>
						<path d="M23.1,23.5c0.3,0.5,0.5,0.8,0.6,1.1c0,0.1,0,0.2-0.1,0.2c-0.3,0-1,0-1.2,0c-0.2,0-0.2-0.1-0.2-0.2c-0.5-1-1.2-2-2-3
							c-0.1-0.1,0-0.3,0.1-0.3c0.1,0,0.8,0,1.1,0c0.1,0,0.2,0.1,0.3,0.2c0.2,0.3,0.4,0.5,0.6,0.8c0.9-0.5,1.5-1.2,1.7-2.2
							c0-0.1,0-0.2-0.2-0.2c-0.2,0-4.4,0-4.4,0c-0.1,0-0.2-0.1-0.2-0.2l0-0.8c0-0.1,0.1-0.2,0.2-0.2c0,0,5.5,0,5.8,0
							c0.3,0,0.3,0.2,0.3,0.3C25.5,21.2,24.6,22.4,23.1,23.5"/>
						<path d="M29.8,24.5c0,0.1-0.1,0.2-0.2,0.2l-0.9,0c-0.1,0-0.2-0.1-0.2-0.2l0-2.6c-0.7,0.3-1.6,0.5-2.6,0.6
							c-0.1,0-0.3-0.1-0.3-0.2c0-0.3,0-0.7,0-0.8c0-0.1,0.1-0.2,0.2-0.2c2.6-0.4,3.9-1.6,4.3-2.5c0-0.1,0.1-0.2,0.3-0.2
							c0.3,0,0.9,0,1,0c0.2,0,0.2,0.1,0.2,0.2c-0.3,0.9-1,1.9-1.8,2.5V24.5z"/>
						<path d="M36.1,20.1l1.8,0c0.1,0,0.2,0.1,0.2,0.2v0.8c0,0.1-0.1,0.2-0.2,0.2l-1.8,0c-0.1,2.2-1.3,3.2-3.6,3.5
							c-0.1,0-0.2-0.1-0.2-0.2c0-0.3,0-0.7,0-0.8c0-0.2,0.1-0.2,0.2-0.2c1.5-0.3,2.2-0.8,2.2-2.3l-2.7,0c-0.1,0-0.2-0.1-0.2-0.2
							v-0.8c0-0.1,0.1-0.2,0.2-0.2l2.7,0l0-1.3c0-0.1,0.1-0.2,0.2-0.2h0.9c0.1,0,0.2,0.1,0.2,0.2L36.1,20.1z"/>
						<g>
							<g>
								<path d="M44.2,19.5c-0.1,0-0.4,0-0.6,0c-0.1,0-0.2-0.1-0.2-0.1c-0.1-0.2-0.2-0.6-0.2-0.6c0-0.1,0-0.2,0.1-0.2
									c0.1,0,0.4,0,0.7,0c0.1,0,0.2,0.1,0.2,0.1c0,0,0.1,0.4,0.2,0.6C44.4,19.5,44.3,19.5,44.2,19.5z"/>
								<path d="M42.9,19.5c-0.1,0-0.4,0-0.6,0c-0.1,0-0.2-0.1-0.2-0.1c-0.1-0.2-0.2-0.6-0.2-0.6c0-0.1,0-0.2,0.1-0.2
									c0.1,0,0.4,0,0.7,0c0.1,0,0.2,0.1,0.2,0.1c0,0,0.1,0.4,0.2,0.6C43.1,19.5,43,19.5,42.9,19.5z"/>
							</g>
							<path d="M44.5,24.5c0,0.1-0.1,0.2-0.2,0.2l-3.6,0c-1.2,0-1.8-0.4-1.8-1.7v-4.3c0-0.1,0.1-0.2,0.2-0.2H40
								c0.1,0,0.2,0.1,0.2,0.2l0,1.3h4c0.1,0,0.2,0.1,0.2,0.2v0.8c0,0.1-0.1,0.2-0.2,0.2l-4,0v1.5c0,0.6,0.2,0.7,0.8,0.7l3.3,0
								c0.1,0,0.2,0.1,0.2,0.2V24.5z"/>
						</g>
					</g>
				</g>
			</g>
		</g>
		<g>
			<path class="st18" d="M89.3,20.6c0-0.1,0-0.3,0.3-0.3c0.2,0,0.3,0.1,0.3,0.3v0.6h0.5c0.1,0,0.3,0,0.3,0.3c0,0.2-0.1,0.3-0.3,0.3
				H90v0.6c0,0.7-0.1,1.5-1.1,1.9c-0.5,0.2-1,0.3-1.1,0.3c-0.3,0-0.3-0.3-0.3-0.4c0-0.2,0.1-0.3,0.5-0.3c0.6-0.1,1.1-0.4,1.3-0.8
				c0.1-0.3,0.1-0.7,0.1-0.8v-0.6h-1.5v1c0,0.2-0.1,0.3-0.3,0.3c-0.2,0-0.3,0-0.3-0.3v-1h-0.5c-0.1,0-0.3,0-0.3-0.3
				c0-0.2,0.2-0.3,0.3-0.3h0.5v-0.6c0-0.1,0-0.3,0.3-0.3c0.2,0,0.3,0.1,0.3,0.3v0.6h1.5V20.6z"/>
			<path class="st18" d="M91.2,22.8c-0.1,0-0.4,0-0.4-0.3c0-0.3,0.2-0.3,0.4-0.3h3.7c0.1,0,0.4,0,0.4,0.3c0,0.3-0.2,0.3-0.4,0.3
				H91.2z"/>
			<path class="st18" d="M98.3,22h1.4c0.1,0,0.3,0,0.3,0.3c0,0.3-0.2,0.3-0.3,0.3h-1.4c-0.1,0.9-0.4,1.4-1,1.7
				c-0.4,0.2-0.8,0.3-1,0.3c-0.3,0-0.3-0.3-0.3-0.4c0-0.2,0.2-0.2,0.3-0.3c1.1-0.3,1.4-0.7,1.4-1.4h-1.7c-0.1,0-0.3,0-0.3-0.3
				c0-0.3,0.2-0.3,0.3-0.3h1.7v-0.7c-0.4,0-1,0.1-1.4,0.1c-0.1,0-0.4,0-0.4-0.3c0-0.3,0.2-0.3,0.4-0.3c0.2,0,1.4-0.1,2.3-0.3
				c0.1,0,0.4-0.1,0.5-0.1c0.1,0,0.1,0,0.1,0c0.2,0,0.3,0.2,0.3,0.3c0,0.2-0.1,0.2-0.3,0.3c-0.2,0.1-0.7,0.2-0.9,0.2V22z"/>
		</g>
	</g>
</g>
<g id="マイナビ転職" class="st0">
	<path class="st19" d="M31,27.2c0,1.1-0.9,1.9-1.9,1.9c-1.1,0-1.9-0.9-1.9-1.9c0-1.1,0.9-1.9,1.9-1.9C30.1,25.2,31,26.1,31,27.2"/>
	<path class="st19" d="M32.2,13.4c0.3-0.8,0-1.6-0.8-1.9c-0.8-0.3-1.6,0.2-2,0.9c-0.7,1.2-4.1,7.7-4.7,8.8c-0.6,1.1-1.3,2.6-1.9,2.4
		c-0.6-0.2-1.2-2.6-1.5-3.3c-0.5-1.2-1.5-2.6-3.2-2.3c-1.3,0.3-2,1.3-3.2,3.5c-0.6,1.2-1,2-1.6,2.8c-1.2,1.6-1.9-1.1-2.3-2.4
		c-0.5-1.9-1.5-4.5-3.6-4.5c-1.2,0-2.4,0.7-4,3.2c-0.9,1.5-3.1,5.6-3.4,6.4c-0.3,0.8,0,1.6,0.7,2c0.8,0.3,1.6,0,2-0.7
		c1.5-2.3,1.9-3.2,2.7-4.3c0.8-1.1,1.9-2.2,2.8,0.6c0.5,1.7,1.5,4.6,4,4.6c1.5,0,3.1-1.3,3.8-2.6c0.8-1.4,1-2.2,1.7-2.9
		c0.3-0.3,0.8-0.5,1.3,0.5c0.4,1,1.4,4.1,3,4.8c2.3,1,4.5-3.7,5.2-5.2C27.8,22.6,31.9,14,32.2,13.4"/>
	<path class="st20" d="M40.5,26.7c0.6,0.9,0.9,1.4,1.1,1.9c0.1,0.2,0,0.4-0.2,0.4h-2.1c-0.3,0-0.4-0.2-0.4-0.3
		c-0.9-1.7-2.1-3.5-3.5-5.3c-0.1-0.1-0.1-0.4,0.2-0.4h1.9c0.2,0,0.4,0.1,0.5,0.3c0.4,0.4,0.6,0.8,1,1.4c1.6-0.8,2.6-2.2,3-3.9
		c0-0.1,0-0.4-0.3-0.4c-0.3,0-7.7,0-7.7,0c-0.2,0-0.4-0.2-0.4-0.4v-1.4c0-0.2,0.2-0.4,0.4-0.4c0,0,9.8,0,10.3,0
		c0.5,0,0.5,0.3,0.5,0.5C44.8,22.7,43.1,24.9,40.5,26.7"/>
	<path class="st20" d="M52.4,28.6c0,0.2-0.2,0.4-0.4,0.4h-1.6c-0.2,0-0.4-0.2-0.4-0.4V24c-1.3,0.6-2.9,0.9-4.5,1.1
		c-0.2,0-0.5-0.1-0.5-0.4v-1.4c0-0.2,0.2-0.4,0.4-0.4c4.7-0.8,6.9-2.8,7.6-4.5c0.1-0.2,0.3-0.3,0.5-0.3c0.6,0,1.6,0,1.8,0
		c0.3,0,0.4,0.2,0.4,0.4c-0.5,1.6-1.8,3.4-3.3,4.4V28.6z"/>
	<path class="st20" d="M63.6,20.7l3.2,0c0.2,0,0.4,0.2,0.4,0.4v1.4c0,0.2-0.2,0.4-0.4,0.4l-3.2,0c-0.2,4-2.3,5.7-6.3,6.2
		c-0.1,0-0.4-0.1-0.4-0.3v-1.5c0-0.3,0.2-0.4,0.4-0.4c2.6-0.5,3.8-1.4,4-4l-4.8,0c-0.2,0-0.4-0.2-0.4-0.4v-1.4
		c0-0.2,0.2-0.4,0.4-0.4l4.8,0v-2.2c0-0.2,0.2-0.4,0.4-0.4h1.6c0.2,0,0.4,0.2,0.4,0.4V20.7z"/>
	<path class="st20" d="M77.9,19.8h-1c-0.2,0-0.4-0.1-0.4-0.3c-0.1-0.4-0.4-1.1-0.4-1.2c0-0.1,0-0.3,0.2-0.3h1.2
		c0.2,0,0.3,0.1,0.4,0.2c0,0.1,0.2,0.7,0.4,1.1C78.2,19.6,78.1,19.8,77.9,19.8"/>
	<path class="st20" d="M75.6,19.8h-1c-0.2,0-0.4-0.1-0.4-0.3c-0.1-0.4-0.4-1.1-0.4-1.2c0-0.1,0-0.3,0.2-0.3h1.2
		c0.2,0,0.3,0.1,0.4,0.2c0,0.1,0.2,0.7,0.4,1.1C75.9,19.6,75.9,19.8,75.6,19.8"/>
	<path class="st20" d="M78.4,28.6c0,0.2-0.2,0.4-0.4,0.4l-6.4,0c-2.2,0-3.1-0.8-3.1-3v-7.6c0-0.2,0.2-0.4,0.4-0.4h1.5
		c0.2,0,0.4,0.2,0.4,0.4v2.3h7c0.2,0,0.4,0.2,0.4,0.4v1.4c0,0.2-0.2,0.4-0.4,0.4h-7v2.6c0,1,0.4,1.2,1.3,1.2l5.9,0
		c0.2,0,0.4,0.2,0.4,0.4V28.6z"/>
	<path class="st21" d="M83.7,22.8v-0.5h-1c-0.1,0-0.5,0-0.5-0.5c0-0.5,0.4-0.5,0.5-0.5h1v-0.3c0-0.4,0.3-0.4,0.5-0.4
		c0.3,0,0.5,0.1,0.5,0.4v0.3h1.1c0.1,0,0.5,0,0.5,0.5c0,0.5-0.4,0.5-0.5,0.5h-1.1v0.5h0.4c0.6,0,1,0.1,1,1v1.6c0,0.7-0.3,1-1,1h-0.4
		v0.5h1.1c0.2,0,0.5,0.1,0.5,0.5c0,0.5-0.4,0.5-0.5,0.5h-1.1v0.9c0,0.2,0,0.5-0.5,0.5c-0.5,0-0.5-0.3-0.5-0.5v-0.9h-1.1
		c-0.2,0-0.5-0.1-0.5-0.5c0-0.5,0.4-0.5,0.5-0.5h1.1v-0.5h-0.4c-0.7,0-1-0.2-1-1v-1.6c0-0.7,0.3-1,1-1H83.7z M83.7,24.2v-0.7h-0.4
		c-0.1,0-0.2,0.1-0.2,0.2v0.4H83.7z M83.7,24.9h-0.6v0.4c0,0.2,0.1,0.2,0.2,0.2h0.4V24.9z M84.6,24.2h0.6v-0.4
		c0-0.1-0.1-0.2-0.2-0.2h-0.4V24.2z M84.6,24.9v0.7H85c0.2,0,0.2-0.1,0.2-0.2v-0.4H84.6z M86.6,24.6c-0.1,0-0.5,0-0.5-0.5
		c0-0.4,0.2-0.5,0.5-0.5h3.2c0.1,0,0.5,0,0.5,0.5c0,0.4-0.2,0.5-0.5,0.5h-1.6c-0.2,0.9-0.4,2.2-0.6,3c0.5-0.1,0.9-0.1,1.4-0.2
		c-0.1-0.2-0.1-0.5-0.2-0.8c-0.2-0.6-0.2-0.7-0.2-0.8c0-0.4,0.4-0.4,0.5-0.4c0.3,0,0.4,0.1,0.7,1c0.2,0.7,0.5,1.9,0.5,2.2
		c0,0.5-0.5,0.5-0.6,0.5c-0.4,0-0.5-0.2-0.5-0.7c-0.5,0.1-2.4,0.4-2.8,0.4c-0.5,0-0.5-0.5-0.5-0.5c0-0.4,0.3-0.5,0.6-0.5
		c0.1-0.6,0.5-2,0.6-3.1H86.6z M86.9,22.1c-0.2,0-0.5-0.1-0.5-0.5c0-0.4,0.2-0.5,0.5-0.5h2.8c0.2,0,0.5,0.1,0.5,0.5
		c0,0.4-0.2,0.5-0.5,0.5H86.9z"/>
	<path class="st21" d="M95.6,28.4c-0.8,0-1-0.2-1-1v-1.7c0-0.8,0.2-1,1-1h0.6c0.8,0,1,0.2,1,1v1.8c0.2-0.2,0.3-0.3,0.5-0.5
		c0-0.2-0.2-1-0.2-2.6h-2.8c-0.2,0-0.3-0.1-0.4-0.2v4.4c0,0.2,0,0.5-0.4,0.5c-0.3,0-0.5-0.1-0.5-0.5v-0.9c-0.1,0-1.2,0.3-1.4,0.3
		c-0.3,0-0.4-0.3-0.4-0.6c0-0.3,0.1-0.4,0.4-0.4V22c-0.3,0-0.4-0.3-0.4-0.5c0-0.5,0.3-0.5,0.5-0.5h2c0.2,0,0.5,0,0.5,0.6
		c0,0,0.1-0.1,0.3-0.1h0.5v-0.4c0-0.3,0.3-0.4,0.5-0.4c0.2,0,0.5,0.1,0.5,0.4v0.4h0.6c0.2,0,0.4,0.1,0.4,0.5c0,0.4-0.2,0.5-0.4,0.5
		c-0.1,0.4-0.1,0.5-0.2,1h0.6c0-0.7,0-1.6,0-2.2c0-0.2,0-0.5,0.5-0.5c0.1,0,0.3,0,0.4,0.2c0.1,0.1,0.1,0.2,0.1,0.8v1.8h1.1
		c0.2,0,0.5,0,0.5,0.5c0,0.3-0.2,0.5-0.5,0.5h-1c0,0.5,0.1,0.9,0.1,1.4c0.1-0.1,0.3-0.8,0.4-0.9c0.1-0.2,0.2-0.2,0.3-0.2
		c0.2,0,0.6,0.1,0.6,0.4c0,0.2-0.4,1.3-1,2.1c0,0.1,0.2,0.6,0.4,0.6c0.1,0,0.2-0.1,0.2-0.3c0.1-0.2,0.1-0.4,0.3-0.4
		c0.1,0,0.5,0.1,0.5,0.4c0,0.4-0.3,0.9-0.4,1c-0.2,0.4-0.5,0.4-0.8,0.4c-0.5,0-0.8-0.5-1-0.9c-0.4,0.4-0.8,0.7-0.9,0.7
		c-0.1,0.1-0.2,0.1-0.3,0.1c-0.3,0-0.5-0.2-0.5-0.5H95.6z M93.3,22h-0.5v0.9h0.5V22z M93.3,23.8h-0.5v1h0.5V23.8z M92.8,26.8
		c0.1,0,0.3-0.1,0.5-0.1v-1h-0.5V26.8z M94.9,23.5c0-0.4-0.1-0.5-0.1-1c-0.4,0-0.4-0.5-0.4-0.6c-0.1,0.1-0.1,0.1-0.2,0.1v1.7
		c0.1-0.1,0.1-0.2,0.4-0.2H94.9z M95.4,26.1h0.9v-0.4c0-0.1-0.1-0.2-0.2-0.2h-0.5c-0.1,0-0.2,0.1-0.2,0.2V26.1z M95.4,26.9v0.4
		c0,0.1,0.1,0.2,0.2,0.2h0.5c0.1,0,0.2-0.1,0.2-0.2v-0.4H95.4z M95.5,22.5c0,0.1,0.1,0.8,0.1,1H96c0.1-0.2,0.1-0.8,0.1-1H95.5z
		 M99.3,23.1c-0.3,0-0.3-0.1-0.4-0.6c-0.1-0.3-0.2-0.7-0.3-0.9c0-0.1-0.1-0.2-0.1-0.3c0-0.2,0.3-0.4,0.5-0.4c0.2,0,0.3,0.1,0.4,0.4
		c0.1,0.3,0.4,1.1,0.4,1.2C99.8,23,99.4,23.1,99.3,23.1"/>
</g>
<g id="女の転職_x40_type" class="st0">
	<path class="st22" d="M35.7,13.7c0-0.2-0.2-0.4-0.4-0.4c-0.2,0-0.4,0.2-0.4,0.4v1.4c0,0.2-0.2,0.4-0.4,0.4h-2.2
		c-0.2,0-0.4,0.2-0.4,0.4c0,0.2,0.2,0.4,0.4,0.4h2.2c0.2,0,0.4,0.2,0.4,0.4v1.1c0,0.2-0.2,0.4-0.4,0.4h-2.2c-0.2,0-0.4,0.2-0.4,0.4
		v5.8c0,0.2,0.2,0.4,0.4,0.4h2.2c0.2,0,0.4,0.2,0.4,0.4v1.1c0,0.2-0.2,0.4-0.4,0.4h-2.2c-0.2,0-0.4,0.2-0.4,0.4
		c0,0.2,0.2,0.4,0.4,0.4h2.2c0.2,0,0.4,0.2,0.4,0.4v1.4c0,0.2,0.2,0.4,0.4,0.4c0.2,0,0.4-0.2,0.4-0.4v-1.4c0-0.2,0.2-0.4,0.4-0.4
		h2.2c0.2,0,0.4-0.2,0.4-0.4c0-0.2-0.2-0.4-0.4-0.4H36c-0.2,0-0.4-0.2-0.4-0.4v-1.1c0-0.2,0.2-0.4,0.4-0.4h2.2
		c0.2,0,0.4-0.2,0.4-0.4v-5.8c0-0.2-0.2-0.4-0.4-0.4H36c-0.2,0-0.4-0.2-0.4-0.4v-1.1c0-0.2,0.2-0.4,0.4-0.4h2.2
		c0.2,0,0.4-0.2,0.4-0.4c0-0.2-0.2-0.4-0.4-0.4H36c-0.2,0-0.4-0.2-0.4-0.4V13.7z M34.6,18.7c0.2,0,0.4,0.2,0.4,0.4v1.4
		c0,0.2-0.2,0.4-0.4,0.4h-1.4c-0.2,0-0.4-0.2-0.4-0.4v-1.4c0-0.2,0.2-0.4,0.4-0.4H34.6z M33.1,23.7c-0.2,0-0.4-0.2-0.4-0.4V22
		c0-0.2,0.2-0.4,0.4-0.4h1.4c0.2,0,0.4,0.2,0.4,0.4v1.4c0,0.2-0.2,0.4-0.4,0.4H33.1z M36,23.7c-0.2,0-0.4-0.2-0.4-0.4V22
		c0-0.2,0.2-0.4,0.4-0.4h1.4c0.2,0,0.4,0.2,0.4,0.4v1.4c0,0.2-0.2,0.4-0.4,0.4H36z M37.5,18.7c0.2,0,0.4,0.2,0.4,0.4v1.4
		c0,0.2-0.2,0.4-0.4,0.4H36c-0.2,0-0.4-0.2-0.4-0.4v-1.4c0-0.2,0.2-0.4,0.4-0.4H37.5z"/>
	<path class="st22" d="M40,14c-0.2,0-0.4,0.2-0.4,0.4c0,0.2,0.2,0.4,0.4,0.4h5.8c0.2,0,0.4-0.2,0.4-0.4c0-0.2-0.2-0.4-0.4-0.4H40z"
		/>
	<path class="st22" d="M39.6,19.4c0,0.2,0.2,0.4,0.4,0.4h0.7c0.2,0,0.3,0.2,0.3,0.4l-1,8.3c0,0.2,0.1,0.4,0.3,0.4h5.1
		c0.2,0,0.3-0.2,0.3-0.4L45.1,23c0-0.2-0.2-0.3-0.4-0.3c-0.2,0-0.3,0.2-0.3,0.4l0.6,4.6c0,0.2-0.1,0.4-0.3,0.4h-3.5
		c-0.2,0-0.3-0.2-0.3-0.4l0.9-7.6c0-0.2,0.2-0.4,0.4-0.4h3.6c0.2,0,0.4-0.2,0.4-0.4c0-0.2-0.2-0.4-0.4-0.4H40
		C39.8,19.1,39.6,19.2,39.6,19.4"/>
	<path class="st22" d="M61.2,28.1c-0.2,0-0.4-0.2-0.4-0.4v-1c0-0.2,0.1-0.5,0.2-0.7l2.4-3.3c0.1-0.2,0.1-0.4-0.1-0.5
		c-0.2-0.1-0.4-0.1-0.5,0.1l-1.8,2.5C61,25,60.9,25,60.9,24.8v-4.6c0-0.2,0.2-0.4,0.4-0.4h2.2c0.2,0,0.4-0.2,0.4-0.4v-3.6
		c0-0.2-0.2-0.4-0.4-0.4c-0.2,0-0.4,0.2-0.4,0.4v2.9c0,0.2-0.2,0.4-0.4,0.4h-1.4c-0.2,0-0.4-0.2-0.4-0.4v-5c0-0.2-0.2-0.4-0.4-0.4
		c-0.2,0-0.4,0.2-0.4,0.4v5c0,0.2-0.2,0.4-0.4,0.4h-1.1c-0.2,0-0.4-0.2-0.4-0.4v-2.2c0-0.2,0.2-0.4,0.4-0.4h0.4
		c0.2,0,0.4-0.2,0.4-0.4c0-0.2-0.2-0.4-0.4-0.4h-1.8c-0.2,0-0.4-0.2-0.4-0.4v-1.4c0-0.2-0.2-0.4-0.4-0.4c-0.2,0-0.4,0.2-0.4,0.4v1.4
		c0,0.2-0.2,0.4-0.4,0.4H54c-0.2,0-0.4,0.2-0.4,0.4c0,0.2,0.2,0.4,0.4,0.4h0.4c0.2,0,0.4,0.2,0.4,0.4v2.2c0,0.2-0.2,0.4-0.4,0.4H54
		c-0.2,0-0.4,0.2-0.4,0.4c0,0.2,0.2,0.4,0.4,0.4h5.8c0.2,0,0.4,0.2,0.4,0.4v8.3c0,0.2,0.2,0.4,0.4,0.4h3.6c0.2,0,0.4-0.2,0.4-0.4
		c0-0.2-0.2-0.4-0.4-0.4H61.2z M55.5,16.6c0-0.2,0.2-0.4,0.4-0.4h1.4c0.2,0,0.4,0.2,0.4,0.4v2.2c0,0.2-0.2,0.4-0.4,0.4h-1.4
		c-0.2,0-0.4-0.2-0.4-0.4V16.6z"/>
	<path class="st22" d="M49,14c-0.2,0-0.4,0.2-0.4,0.4c0,0.2,0.2,0.4,0.4,0.4h0.4c0.2,0,0.4,0.2,0.4,0.4v10.8c0,0.2-0.2,0.4-0.4,0.4
		H49c-0.2,0-0.4,0.2-0.4,0.4c0,0.2,0.2,0.4,0.4,0.4h2.9c0.2,0,0.4,0.2,0.4,0.4v1.4c0,0.2,0.2,0.4,0.4,0.4c0.2,0,0.4-0.2,0.4-0.4
		V14.4c0-0.2-0.2-0.4-0.4-0.4H49z M51.9,14.8c0.2,0,0.4,0.2,0.4,0.4v2.5c0,0.2-0.2,0.4-0.4,0.4h-1.1c-0.2,0-0.4-0.2-0.4-0.4v-2.5
		c0-0.2,0.2-0.4,0.4-0.4H51.9z M50.5,19.1c0-0.2,0.2-0.4,0.4-0.4h1.1c0.2,0,0.4,0.2,0.4,0.4V22c0,0.2-0.2,0.4-0.4,0.4h-1.1
		c-0.2,0-0.4-0.2-0.4-0.4V19.1z M50.8,26.3c-0.2,0-0.4-0.2-0.4-0.4v-2.5c0-0.2,0.2-0.4,0.4-0.4h1.1c0.2,0,0.4,0.2,0.4,0.4v2.5
		c0,0.2-0.2,0.4-0.4,0.4H50.8z"/>
	<path class="st22" d="M54.8,21.2c-0.2,0-0.4,0.2-0.4,0.4v5.8c0,0.2,0.2,0.4,0.4,0.4h3.6c0.2,0,0.4-0.2,0.4-0.4v-5.8
		c0-0.2-0.2-0.4-0.4-0.4H54.8z M57.6,22c0.2,0,0.4,0.2,0.4,0.4v1.4c0,0.2-0.2,0.4-0.4,0.4h-2.2c-0.2,0-0.4-0.2-0.4-0.4v-1.4
		c0-0.2,0.2-0.4,0.4-0.4H57.6z M55.5,27c-0.2,0-0.4-0.2-0.4-0.4v-1.4c0-0.2,0.2-0.4,0.4-0.4h2.2c0.2,0,0.4,0.2,0.4,0.4v1.4
		c0,0.2-0.2,0.4-0.4,0.4H55.5z"/>
	<path class="st22" d="M28.8,17.4h-9.1c-0.2,0-0.3,0.1-0.3,0.3v9c0,0.2,0.1,0.3,0.3,0.3h4.5c0.2,0,0.3-0.1,0.3-0.3v-8.4
		c0-0.2,0.1-0.3,0.3-0.3H28c0.2,0,0.3,0.1,0.3,0.3v8.4c0,0.2,0.1,0.3,0.3,0.3s0.3-0.1,0.3-0.3v-9C28.9,17.5,28.8,17.4,28.8,17.4
		 M23.5,18c0.2,0,0.3,0.1,0.3,0.3v7.8c0,0.2-0.1,0.3-0.3,0.3h-3.3c-0.2,0-0.3-0.1-0.3-0.3v-7.8c0-0.2,0.1-0.3,0.3-0.3H23.5z"/>
	<path class="st22" d="M16.2,16.9c0.2,0,0.4-0.2,0.4-0.4c0-0.2-0.2-0.4-0.4-0.4H6.1c-0.2,0-0.3-0.2-0.3-0.4L6.4,13
		c0-0.2-0.1-0.4-0.3-0.4c-0.2,0-0.4,0.1-0.4,0.3l-0.6,3c0,0.2-0.2,0.4-0.4,0.4H0.4c-0.2,0-0.4,0.2-0.4,0.4c0,0.2,0.2,0.4,0.4,0.4
		h4.1c0.2,0,0.3,0.2,0.3,0.4l-1.9,8.6c0,0.2,0.1,0.4,0.3,0.4h7.3c0.2,0,0.3,0.2,0.3,0.4l-0.6,2.8c0,0.2,0.1,0.4,0.3,0.4
		c0.2,0,0.4-0.1,0.4-0.3l0.6-3c0-0.2,0.2-0.4,0.4-0.4h4.2c0.2,0,0.4-0.2,0.4-0.4c0-0.2-0.2-0.4-0.4-0.4h-4.1c-0.2,0-0.3-0.2-0.3-0.4
		l1.7-7.9c0-0.2,0.2-0.4,0.4-0.4H16.2z M11.1,25.2c0,0.2-0.2,0.4-0.4,0.4H4c-0.2,0-0.3-0.2-0.3-0.4l1.7-7.9c0-0.2,0.2-0.4,0.4-0.4
		h6.6c0.2,0,0.3,0.2,0.3,0.4L11.1,25.2z"/>
	<path class="st22" d="M100,21.2c0,4.5-7,8.2-15.6,8.2c-8.6,0-15.6-3.7-15.6-8.2c0-4.5,7-8.2,15.6-8.2C93,13.1,100,16.7,100,21.2"/>
	<path class="st23" d="M74.7,21.8c-0.1,0.1-0.1,0.2-0.2,0.2c-0.1,0-0.1,0.1-0.2,0.1c-0.1,0-0.2,0-0.2-0.1c0-0.1-0.1-0.2-0.1-0.4
		c0-0.2,0-0.4,0.1-0.6c0-0.2,0.1-0.4,0.2-0.6c0.1-0.2,0.2-0.3,0.3-0.4c0.1-0.1,0.2-0.2,0.3-0.2c0.1,0,0.2,0,0.3,0.1
		c0.1,0.1,0.1,0.2,0.1,0.3L74.7,21.8z M76.1,18.4c-0.3-0.1-0.7-0.2-1.1-0.2c-0.5,0-0.9,0.1-1.3,0.3c-0.4,0.2-0.8,0.4-1,0.7
		c-0.3,0.3-0.5,0.6-0.7,1c-0.2,0.4-0.2,0.7-0.2,1.1c0,0.5,0.1,0.8,0.3,1.2c0.2,0.3,0.4,0.6,0.7,0.9c0.3,0.2,0.6,0.4,1,0.5
		c0.4,0.1,0.7,0.2,1.1,0.2c0.4,0,0.8-0.1,1.1-0.2c0.3-0.1,0.6-0.3,0.9-0.5l-0.1-0.2c-0.2,0.2-0.5,0.3-0.8,0.4
		c-0.3,0.1-0.6,0.2-1,0.2c-0.3,0-0.7-0.1-0.9-0.2c-0.3-0.1-0.5-0.3-0.7-0.5c-0.2-0.2-0.4-0.5-0.5-0.8c-0.1-0.3-0.2-0.7-0.2-1.1
		c0-0.4,0.1-0.8,0.2-1.1c0.1-0.3,0.3-0.6,0.6-0.8c0.2-0.2,0.5-0.4,0.8-0.5c0.3-0.1,0.6-0.2,0.9-0.2c0.3,0,0.6,0,0.9,0.1
		c0.3,0.1,0.5,0.2,0.7,0.4c0.2,0.2,0.3,0.4,0.4,0.6c0.1,0.2,0.1,0.5,0.1,0.7c0,0.5-0.1,1-0.3,1.3c-0.2,0.3-0.5,0.5-0.9,0.5
		c-0.1,0-0.2,0-0.2-0.1c0-0.1-0.1-0.1-0.1-0.2c0,0,0-0.1,0-0.2c0-0.1,0-0.1,0-0.2l0.7-1.9h-0.9l-0.1,0.3h0c0-0.1-0.1-0.2-0.2-0.3
		c-0.1-0.1-0.2-0.1-0.4-0.1c-0.2,0-0.5,0.1-0.7,0.2c-0.2,0.1-0.4,0.3-0.6,0.5c-0.2,0.2-0.3,0.4-0.4,0.6c-0.1,0.2-0.1,0.5-0.1,0.7
		c0,0.3,0.1,0.5,0.2,0.7c0.2,0.2,0.4,0.3,0.7,0.3c0.1,0,0.2,0,0.3,0c0.1,0,0.1,0,0.2-0.1c0.1,0,0.1-0.1,0.2-0.1
		c0.1-0.1,0.1-0.1,0.2-0.2h0c0,0.1,0.1,0.2,0.3,0.3c0.2,0.1,0.4,0.1,0.6,0.1c0.5,0,0.9-0.2,1.2-0.6c0.3-0.4,0.5-0.9,0.5-1.5
		c0-0.3,0-0.6-0.1-0.8c-0.1-0.3-0.2-0.5-0.4-0.7C76.6,18.7,76.4,18.5,76.1,18.4"/>
	<path class="st23" d="M78.6,20.1v2c0,0.4,0.3,0.9,1.3,0.9c0.6,0,1.2-0.2,1.6-0.6l-0.2-0.1c-0.2,0.1-0.5,0.2-0.7,0.2
		c-0.4,0-0.4-0.2-0.4-0.5v-2h1.1v-0.3h-1.1v-1.1h-0.6c-0.2,0.6-0.5,1.1-1.7,1.1v0.3H78.6z"/>
	<path class="st23" d="M81.6,19.8v0.3c0.4,0,0.6,0.1,0.7,0.4l1.7,2.5c-0.1,0.2-0.4,0.6-0.8,0.6c-0.2,0-0.4-0.4-0.9-0.4
		c-0.4,0-0.6,0.2-0.6,0.4c0,0.3,0.3,0.4,0.8,0.4c1.1,0,1.5-0.6,1.9-1.2l1.4-2.1c0.2-0.4,0.5-0.7,1.1-0.7v-0.3h-2.1l0,0.3
		c0.5,0,0.7,0,0.7,0.3c0,0.1,0,0.3-0.1,0.4l-0.6,0.9l-0.7-0.9c-0.1-0.1-0.3-0.4-0.3-0.5c0-0.2,0.2-0.2,0.4-0.2v-0.3H81.6z"/>
	<path class="st23" d="M90.3,19.7c-0.5,0-0.9,0.1-1.2,0.4v-0.4h-2.2v0.3c0.5,0,0.7,0.4,0.7,0.6v2.7c0,0.5-0.3,0.5-0.6,0.5v0.2h2.8
		v-0.2c-0.3,0-0.6-0.1-0.6-0.5v-0.8c0.2,0.2,0.6,0.3,1.2,0.3c1.1,0,2-0.6,2-1.7C92.3,20.4,91.6,19.7,90.3,19.7 M89.9,22.6
		c-0.3,0-0.6-0.1-0.8-0.3v-1.8c0.2-0.2,0.4-0.4,0.8-0.4c0.6,0,0.8,0.7,0.8,1.2C90.8,21.9,90.5,22.6,89.9,22.6"/>
	<path class="st23" d="M96.9,22.1c-0.4,0.3-0.9,0.5-1.4,0.5c-1,0-1.4-0.7-1.4-1.2h3c0-0.9-0.9-1.7-2.2-1.7c-1.4,0-2.4,0.7-2.4,1.7
		c0,0.9,1.1,1.6,2.5,1.6c0.9,0,1.6-0.3,2.2-0.7L96.9,22.1z M94.9,20c0.5,0,0.7,0.5,0.7,1l-1.5,0C94.1,20.5,94.4,20,94.9,20"/>
	<path class="st23" d="M96.7,23.5C96.8,23.5,96.8,23.5,96.7,23.5c0.1,0.1,0,0.1,0,0.1h-0.2v-0.1H96.7z M96.5,23.4v0.5h0.1v-0.2h0.2
		c0,0,0.1,0,0.1,0.1v0.1c0,0,0,0.1,0,0.1h0.1c0,0,0-0.1,0-0.1v0c0-0.1,0-0.1-0.1-0.1c0.1,0,0.1-0.1,0.1-0.1c0-0.1-0.1-0.1-0.2-0.1
		H96.5z"/>
	<path class="st23" d="M96.2,23.7c0-0.2,0.2-0.4,0.4-0.4c0.2,0,0.4,0.2,0.4,0.4c0,0.2-0.2,0.4-0.4,0.4
		C96.4,24.1,96.2,23.9,96.2,23.7 M96.3,23.7c0,0.2,0.2,0.4,0.4,0.4c0.2,0,0.4-0.2,0.4-0.4c0-0.2-0.2-0.4-0.4-0.4
		C96.5,23.3,96.3,23.5,96.3,23.7"/>
</g>
</svg>
