<svg id="キャリタス転職" xmlns="http://www.w3.org/2000/svg" viewBox="0 0 99.29 18.26"><defs><style>.cls-1{fill:#094;}.cls-2{fill:#040000;}</style></defs><title>career_plus</title><path class="cls-1" d="M75.43,18.62V17.91H73.81a0.72,0.72,0,1,1,0-1.43h1.62V16a0.63,0.63,0,0,1,.76-0.63,0.61,0.61,0,0,1,.71.63v0.49h1.68a0.72,0.72,0,1,1,0,1.43H76.91v0.71h0.63a1.26,1.26,0,0,1,1.51,1.47v2.47A1.25,1.25,0,0,1,77.58,24H76.91v0.72h1.76a0.74,0.74,0,1,1,0,1.49H76.91v1.32a0.74,0.74,0,0,1-1.47,0V26.25H73.66a0.74,0.74,0,1,1,0-1.49h1.77V24H74.78a1.25,1.25,0,0,1-1.47-1.47V20.1a1.25,1.25,0,0,1,1.47-1.47h0.65Zm0,2.14v-1H74.89a0.29,0.29,0,0,0-.31.33v0.68h0.9Zm0,1.05h-0.9V22.5a0.29,0.29,0,0,0,.31.33h0.59v-1Zm1.39-1.05h0.94V20.08a0.3,0.3,0,0,0-.33-0.33H76.87v1Zm0,1.05v1h0.61a0.29,0.29,0,0,0,.33-0.33V21.82H76.87Zm3.1-.38a0.81,0.81,0,1,1,0-1.62h5a0.81,0.81,0,0,1,0,1.62H82.45c-0.25,1.39-.66,3.39-1,4.61,0.82-.1,1.34-0.15,2.24-0.3-0.08-.34-0.21-0.82-0.34-1.28a4.59,4.59,0,0,1-.31-1.28,0.72,0.72,0,0,1,.8-0.64c0.49,0,.57.12,1,1.5a21.18,21.18,0,0,1,.81,3.45,0.74,0.74,0,0,1-.86.74c-0.67,0-.72-0.32-0.83-1.07-0.81.15-3.77,0.64-4.3,0.64A0.77,0.77,0,0,1,78.94,27c0-.7.44-0.72,0.93-0.75a40.69,40.69,0,0,0,.91-4.78H80Zm0.42-3.84a0.8,0.8,0,1,1,0-1.6h4.27a0.72,0.72,0,0,1,.82.79,0.72,0.72,0,0,1-.82.8H80.39Z" transform="translate(-0.36 -15.08)"/><path class="cls-1" d="M92.74,27.34c-1.26,0-1.53-.27-1.53-1.53V23.14c0-1.24.26-1.53,1.53-1.53h0.89c1.24,0,1.53.27,1.53,1.53v2.73a9.79,9.79,0,0,0,.75-0.75,28,28,0,0,1-.37-4h-4.3a0.57,0.57,0,0,1-.56-0.29v6.76a0.6,0.6,0,0,1-.66.71,0.61,0.61,0,0,1-.74-0.71V26.13a18.19,18.19,0,0,1-2.2.51,0.81,0.81,0,0,1-.66-0.94,0.61,0.61,0,0,1,.64-0.7V17.34a0.66,0.66,0,0,1-.56-0.76,0.65,0.65,0,0,1,.75-0.78h3.15c0.25,0,.85,0,0.72,1a0.64,0.64,0,0,1,.52-0.15h0.79V16a0.72,0.72,0,0,1,1.43,0v0.63h0.87a0.6,0.6,0,0,1,.67.72c0,0.68-.33.74-0.64,0.75-0.08.63-.11,0.79-0.25,1.54h1c0-1.15,0-2.55,0-3.48a0.66,0.66,0,0,1,.74-0.79,0.7,0.7,0,0,1,.63.26,2.06,2.06,0,0,1,.12,1.2v2.81h1.65a0.75,0.75,0,1,1,0,1.49H97c0,0.8.08,1.43,0.15,2.12,0.09-.22.52-1.23,0.6-1.39a0.48,0.48,0,0,1,.48-0.34,0.79,0.79,0,0,1,.87.59,10.44,10.44,0,0,1-1.6,3.32,1.37,1.37,0,0,0,.56.94c0.14,0,.23-0.14.34-0.52a0.53,0.53,0,0,1,.5-0.56,0.7,0.7,0,0,1,.74.68,3.72,3.72,0,0,1-.6,1.61,1.33,1.33,0,0,1-1.19.7,1.81,1.81,0,0,1-1.53-1.43A13.27,13.27,0,0,1,95,28a0.78,0.78,0,0,1-1.24-.64h-1Zm-3.45-10H88.47v1.43h0.82V17.35Zm0,2.84H88.47v1.5h0.82v-1.5Zm-0.82,4.59,0.82-.16V23.13H88.47v1.65Zm3.28-5.15a12.14,12.14,0,0,0-.22-1.56A0.67,0.67,0,0,1,91,17.2a0.47,0.47,0,0,1-.27.14v2.57a0.59,0.59,0,0,1,.56-0.27h0.5ZM92.5,23.8h1.36V23.24a0.29,0.29,0,0,0-.33-0.34H92.83a0.29,0.29,0,0,0-.33.34V23.8Zm0,1.22v0.64a0.29,0.29,0,0,0,.33.33h0.71a0.28,0.28,0,0,0,.33-0.33V25H92.5Zm0.2-6.92c0,0.22.16,1.3,0.16,1.54h0.55a13.93,13.93,0,0,0,.19-1.54H92.7Zm5.77,1.06c-0.41,0-.45-0.16-0.68-0.87-0.12-.4-0.38-1.07-0.48-1.32a1.14,1.14,0,0,1-.1-0.4A0.76,0.76,0,0,1,98,16a0.67,0.67,0,0,1,.63.6,10.25,10.25,0,0,1,.66,1.91A0.76,0.76,0,0,1,98.48,19.15Z" transform="translate(-0.36 -15.08)"/><path class="cls-2" d="M8.75,24.5h5.17v-2H8.53a0.25,0.25,0,0,1-.25-0.22L8,19.61a0.25,0.25,0,0,1,.25-0.27h5v-2H8a0.25,0.25,0,0,1-.25-0.23l-0.17-2H5.32l0.17,2a0.25,0.25,0,0,1-.06.19,0.25,0.25,0,0,1-.18.08H0.84v2H5.46a0.25,0.25,0,0,1,.25.22L6,22.2a0.25,0.25,0,0,1-.25.27H0.36v2H5.94a0.25,0.25,0,0,1,.25.22l0.3,3.55H8.82L8.5,24.77a0.24,0.24,0,0,1,.25-0.27" transform="translate(-0.36 -15.08)"/><path class="cls-2" d="M26.94,19.57H20.11a0.25,0.25,0,0,1-.24-0.21l-0.24-1.51H17.56l0.22,1.44a0.24,0.24,0,0,1-.06.2,0.24,0.24,0,0,1-.19.09h-1.6v1.9l2,0a0.24,0.24,0,0,1,.25.21l1,6.6h2.14l-1.06-6.51a0.25,0.25,0,0,1,.05-0.2,0.25,0.25,0,0,1,.19-0.09H24a0.25,0.25,0,0,1,.21.11,0.25,0.25,0,0,1,0,.23A3.15,3.15,0,0,1,22,23.69v2a6.09,6.09,0,0,0,5-6.1" transform="translate(-0.36 -15.08)"/><rect class="cls-2" x="28.88" y="0.67" width="2.34" height="7.06"/><path class="cls-2" d="M30.77,26.19v2c6.78-.14,9.67-2.56,9.67-8.06V15.75H38.06v4.38c0,4.69-2.56,5.78-7.28,6.07" transform="translate(-0.36 -15.08)"/><path class="cls-2" d="M65.32,23.93h0a0.24,0.24,0,0,1,.18.12,9.19,9.19,0,0,0,5,4.09v-2.4a7.76,7.76,0,0,1-3.57-3.88,0.24,0.24,0,0,1,0-.22,13,13,0,0,0,1.76-5.91H58.58v2.08h7.05a0.25,0.25,0,0,1,.2.1,0.25,0.25,0,0,1,0,.21c-1.15,4.41-5,6.93-8.09,7.78V28a14.43,14.43,0,0,0,7.36-4,0.24,0.24,0,0,1,.18-0.08" transform="translate(-0.36 -15.08)"/><path class="cls-2" d="M45.88,15.75a7.93,7.93,0,0,1-3,4v2.31a7.38,7.38,0,0,0,2.46-1.58,12.61,12.61,0,0,0,1.92-2.59,0.25,0.25,0,0,1,.22-0.13h5.54a0.25,0.25,0,0,1,.25.28,11.54,11.54,0,0,1-.67,2.87,0.25,0.25,0,0,1-.23.16h0c-1.34-.27-2.89-0.52-4.55-0.72l-0.94,1.88c1.33,0.16,2.71.38,4.24,0.66a0.25,0.25,0,0,1,.14.41c-1.4,1.62-3.53,2.58-6.51,2.93v2c7.42-.54,10.94-4.52,11-12.5H45.88Z" transform="translate(-0.36 -15.08)"/><path class="cls-2" d="M47.47,32.37a0.83,0.83,0,0,1-.59.27A0.63,0.63,0,0,1,46.27,32a0.61,0.61,0,0,1,.59-0.67,0.81,0.81,0,0,1,.56.23l0,0,0.34-.34,0,0a1.31,1.31,0,0,0-.9-0.34,1.12,1.12,0,0,0,0,2.24,1.3,1.3,0,0,0,1-.4l0,0-0.33-.31Z" transform="translate(-0.36 -15.08)"/><path class="cls-2" d="M51.26,32.63V31.48c0-.4-0.36-0.63-1-0.63a2,2,0,0,0-1,.27h0l0.18,0.42,0,0a1.54,1.54,0,0,1,.78-0.25,0.4,0.4,0,0,1,.48.33v0.17a1.35,1.35,0,0,0-.61-0.13,0.81,0.81,0,0,0-1,.69,0.75,0.75,0,0,0,.84.74,1.13,1.13,0,0,0,.76-0.27,0.86,0.86,0,0,0,0,.21v0h0.51l0,0a1,1,0,0,1-.05-0.36m-0.5-.44v0.18a1,1,0,0,1-.66.28,0.36,0.36,0,0,1-.43-0.31c0-.19.19-0.28,0.55-0.28a1.06,1.06,0,0,1,.54.14" transform="translate(-0.36 -15.08)"/><path class="cls-2" d="M54.08,30.85a0.68,0.68,0,0,0-.57.35,1.81,1.81,0,0,0,0-.26v0H53v0a2.86,2.86,0,0,1,.06.56V33h0.5V31.67A0.59,0.59,0,0,1,54,31.34a0.61,0.61,0,0,1,.24.06l0,0L54.41,31h0a0.46,0.46,0,0,0-.31-0.09" transform="translate(-0.36 -15.08)"/><path class="cls-2" d="M56.74,30.85A1.1,1.1,0,0,0,55.64,32a1,1,0,0,0,1.06,1.11,1.54,1.54,0,0,0,1-.39l0,0-0.34-.33,0,0a0.92,0.92,0,0,1-.65.27,0.58,0.58,0,0,1-.61-0.55h1.65v0a1,1,0,0,0,0-.13,1,1,0,0,0-1.06-1.1m0,0.42a0.49,0.49,0,0,1,.54.42H56.18a0.56,0.56,0,0,1,.54-0.42" transform="translate(-0.36 -15.08)"/><path class="cls-2" d="M60.06,30.85A1.1,1.1,0,0,0,59,32,1,1,0,0,0,60,33.09a1.54,1.54,0,0,0,1-.39l0,0-0.34-.33,0,0a0.93,0.93,0,0,1-.65.27,0.58,0.58,0,0,1-.61-0.55h1.65v0s0-.09,0-0.13a1,1,0,0,0-1.06-1.1m0,0.42a0.49,0.49,0,0,1,.54.42H59.5A0.56,0.56,0,0,1,60,31.27" transform="translate(-0.36 -15.08)"/><path class="cls-2" d="M63.73,30.85a0.68,0.68,0,0,0-.57.35,1.81,1.81,0,0,0,0-.26v0H62.65v0a2.91,2.91,0,0,1,.05.56V33h0.5V31.67a0.59,0.59,0,0,1,.42-0.34,0.62,0.62,0,0,1,.24.06l0,0L64.05,31h0a0.45,0.45,0,0,0-.31-0.09" transform="translate(-0.36 -15.08)"/><polygon class="cls-2" points="42.57 18.26 43.45 18.26 43.45 17.92 43.01 17.92 43.01 15.76 43.45 15.76 43.45 15.41 42.57 15.41 42.57 18.26"/><polygon class="cls-2" points="69.29 15.41 69.29 15.76 69.73 15.76 69.73 17.92 69.29 17.92 69.29 18.26 70.18 18.26 70.18 15.41 69.29 15.41"/><polygon class="cls-2" points="66.52 15.77 66.09 15.77 66.09 16.64 65.22 16.64 65.22 17.07 66.09 17.07 66.09 17.93 66.52 17.93 66.52 17.07 67.38 17.07 67.38 16.64 66.52 16.64 66.52 15.77"/></svg>