<svg xmlns="http://www.w3.org/2000/svg" viewBox="0 0 100.19 23.57"><defs><style>.cls-1{isolation:isolate;}.cls-2{fill:#e50012;}.cls-3{mix-blend-mode:multiply;}</style></defs><title>cookbiz</title><g class="cls-1"><g id="クックビズ"><path class="cls-2" d="M8.68,19.5c-1.61,0-3.26.1-4.89,0.1v0.8c1.63,0,3.3-.05,4.91-0.1s3.26-.1,4.89-0.1V19.4c-1.64,0-3.31.05-4.91,0.11" transform="translate(0 -7.91)"/><path class="cls-2" d="M3.91,12.91a5.09,5.09,0,0,0-1.1,3.64,11.66,11.66,0,0,0,.62,3.79l0.74-.28c-0.62-1.64-1-5.4.29-6.58v0c1-1,3-.91,4.6-0.84l1,0c2.53,0,2.64.39,2.88,2.74,0.14,1.49.26,3.08,0.26,4.68H14c0-1.63-.13-3.25-0.26-4.76-0.28-2.76-.68-3.46-3.66-3.46l-1,0c-1.77-.07-4-0.15-5.19,1.09m0,0h0Z" transform="translate(0 -7.91)"/><path class="cls-2" d="M13.2,19.5a0.4,0.4,0,0,0,0,.56,4.88,4.88,0,0,1,.63,3.11c0,0.46,0,1,.06,1.58,0.19,3.15.14,5.59-2.36,5.83A13.63,13.63,0,0,1,6,30.2a3.07,3.07,0,0,1-1.71-1.8,0.59,0.59,0,0,1,.22-0.58,0.4,0.4,0,0,0,.11-0.46,0.4,0.4,0,0,0-.39-0.25,23.66,23.66,0,0,1-3,0,7.16,7.16,0,0,1,2.34-1.29,0.39,0.39,0,0,0,.34-0.36,11.54,11.54,0,0,0,.05-1.16c0-.49,0-1,0-1.45l0-.81c0-.12,0-0.27,0-0.43a1.16,1.16,0,0,1,.39-1.14,0.39,0.39,0,0,0,.3-0.38,0.82,0.82,0,0,0,0-.1A0.4,0.4,0,0,0,4,19.66c-0.86.23-1,1.2-1,1.92,0,0.17,0,.33,0,0.46l0,0.82c0,0.48,0,.94,0,1.41,0,0.27,0,.54,0,0.82C2.21,25.38.39,26.42,0,27.27a0.52,0.52,0,0,0,0,.16,0.33,0.33,0,0,0,.06.21,0.37,0.37,0,0,0,.31.19c1.11,0.07,2.18.13,3.16,0.11a1.35,1.35,0,0,0,0,.34,1.18,1.18,0,0,0,0,.24A3.79,3.79,0,0,0,5.7,30.93a14.36,14.36,0,0,0,5.88.46c3.45-.34,3.23-4.15,3.08-6.67,0-.56-0.07-1.09-0.06-1.52,0-1.15,0-2.78-.84-3.66a0.39,0.39,0,0,0-.56,0M4.28,27.91h0" transform="translate(0 -7.91)"/><path class="cls-2" d="M4.69,22.11a0.4,0.4,0,0,0-.22.51,0.39,0.39,0,0,0,.51.23,5.89,5.89,0,0,1,3.19-.39,0.4,0.4,0,0,0,.14-0.79,6.74,6.74,0,0,0-3.62.44" transform="translate(0 -7.91)"/><path class="cls-2" d="M14.14,8a2.23,2.23,0,0,0-1.09,2.27,2.8,2.8,0,0,0,2.32,1.85,3.82,3.82,0,0,0,3.91-1.29,0.4,0.4,0,0,0-.08-0.56,0.4,0.4,0,0,0-.55.08,3,3,0,0,1-3.11,1,2.13,2.13,0,0,1-1.71-1.25,1.63,1.63,0,0,1,.81-1.47,0.4,0.4,0,0,0,.06-0.56A0.39,0.39,0,0,0,14.14,8" transform="translate(0 -7.91)"/><path class="cls-2" d="M16.3,8.47A25.83,25.83,0,0,1,13.84,11c-0.52.49-1.07,1-1.57,1.51a0.4,0.4,0,0,0,.56.56c0.49-.5,1-1,1.55-1.48A26.94,26.94,0,0,0,16.92,9a0.41,0.41,0,0,0-.05-0.56,0.4,0.4,0,0,0-.56.06" transform="translate(0 -7.91)"/><path class="cls-2" d="M6.08,22.78a0.4,0.4,0,0,0-.27.49,0.4,0.4,0,0,0,.49.28l0.21,0a0.39,0.39,0,0,0,.72-0.29,0.58,0.58,0,0,0-.27-0.4,1.19,1.19,0,0,0-.87,0" transform="translate(0 -7.91)"/><path class="cls-2" d="M27.61,26.37a3.56,3.56,0,0,1-1.08,1.26,3.45,3.45,0,0,1-2.09.68,3.55,3.55,0,0,1-3.55-3.55,3.44,3.44,0,0,1,1-2.5,3.49,3.49,0,0,1,4.6-.34,3.62,3.62,0,0,1,1.09,1.28l1.58-.79a5.07,5.07,0,0,0-1.41-1.74,5.21,5.21,0,0,0-3.35-1.19A5.12,5.12,0,0,0,20.67,21a5.27,5.27,0,0,0,0,7.49,5.29,5.29,0,0,0,7.12.36,5.22,5.22,0,0,0,1.4-1.73Z" transform="translate(0 -7.91)"/><path class="cls-2" d="M51.18,21.18a5.22,5.22,0,0,1,0,7.37,5,5,0,0,1-3.69,1.54,5.23,5.23,0,0,1-5.23-5.23,5.22,5.22,0,0,1,8.92-3.67m-1.25,6.15a3.47,3.47,0,1,0-4.9,0,3.39,3.39,0,0,0,2.45,1,3.36,3.36,0,0,0,2.45-1" transform="translate(0 -7.91)"/><path class="cls-2" d="M39.38,21.18a5.21,5.21,0,0,1,0,7.37,5,5,0,0,1-3.68,1.54,5.21,5.21,0,0,1-3.7-8.9,5.05,5.05,0,0,1,3.7-1.53,5,5,0,0,1,3.68,1.53m-1.24,6.15a3.47,3.47,0,1,0-4.9,0,3.49,3.49,0,0,0,4.9,0" transform="translate(0 -7.91)"/><path class="cls-2" d="M83,22.08a5,5,0,0,0-6.85-.22V16.48H74.45V25a5.54,5.54,0,0,0,1.47,4.09,5,5,0,0,0,8.53-3.54A4.76,4.76,0,0,0,83,22.08ZM81.75,27.9a3.28,3.28,0,0,1-4.61,0,3.15,3.15,0,0,1-1-2.32,3.27,3.27,0,0,1,6.53,0A3.12,3.12,0,0,1,81.75,27.9Z" transform="translate(0 -7.91)"/><path class="cls-2" d="M88.83,17.32a1.08,1.08,0,0,1-.33.78,1.12,1.12,0,0,1-1.6,0,1.06,1.06,0,0,1-.34-0.78,1.1,1.1,0,0,1,.34-0.81,1.12,1.12,0,0,1,1.6,0,1.12,1.12,0,0,1,.33.81M88.59,30.16V19.9H86.81V30.16h1.78Z" transform="translate(0 -7.91)"/><polygon class="cls-2" points="100.05 11.82 91.22 11.82 91.22 13.45 96.93 13.45 91.1 21.65 91.1 22.08 100.19 22.08 100.19 20.45 93.98 20.45 100.05 12.11 100.05 11.82"/><polygon class="cls-2" points="71.71 16.36 68.67 16.36 68.67 13.32 67.45 13.32 67.45 16.36 64.41 16.36 64.41 17.58 67.45 17.58 67.45 20.62 68.67 20.62 68.67 17.58 71.71 17.58 71.71 16.36"/><g class="cls-3"><polygon class="cls-2" points="62.99 11.78 60.46 11.78 56.14 15.64 56.14 7.95 54.44 7.95 54.44 8.16 54.44 22.16 56.14 22.16 56.14 18.21 60.72 21.89 63.16 21.89 57.12 16.93 62.99 11.78"/></g></g></g></svg>