<svg id="クリーデンス" xmlns="http://www.w3.org/2000/svg" viewBox="0 0 99.97 8.54"><defs><style>.cls-1{fill:#f08000;fill-rule:evenodd;}</style></defs><title>転職クライアントロゴSVG</title><path class="cls-1" d="M43.74,15.12H39.5v8h4.24c1.94,0,4.83-.64,4.83-4S45.71,15.12,43.74,15.12Zm-1.86,6.69H41.19V16.46h0.69c3,0,5,.07,5,2.67S45,21.81,41.88,21.81Zm-27-5.35h3.43c1.37,0,1.69.31,1.69,1.12s-0.31,1.12-1.69,1.12H14.89V16.46Zm5.17,6.69h2.08l-2.6-3.23a2.19,2.19,0,0,0,2.16-2.34c0-1.91-1-2.46-3.27-2.46H13.19v8h1.7V20H17.5ZM5,14.79c2.55,0,3.52,1,4,1.54L7.86,17.49C7.38,16.37,5.71,16.15,5,16.15a3,3,0,0,0-3.27,3C1.74,21.64,4,22,5,22c0.7,0,2.23-.12,2.86-1.29L9,21.87c-0.46.64-1.54,1.47-4,1.47s-5-.91-5-4.2S2.49,14.79,5,14.79Zm79.05,0c2.55,0,3.52,1,4,1.54l-1.13,1.16c-0.47-1.12-2.15-1.35-2.85-1.35a3,3,0,0,0-3.27,3C80.78,21.64,83,22,84.05,22c0.7,0,2.22-.12,2.85-1.29L88,21.87c-0.46.64-1.55,1.47-4,1.47s-5-.91-5-4.2S81.54,14.79,84.05,14.79Zm15.92,7v1.34H92v-8h6.72v1.34h-5v1.88H99v1.34H93.73v2.13H100Zm-38.8,0v1.34H53.24v-8H60v1.34h-5v1.88h5.27v1.34H54.93v2.13h6.24ZM75,15.12v8H73.38l-6-6v6H65.79v-8h1.8L73.38,21V15.12H75Zm-40.2,6.69v1.34H26.88v-8h6.72v1.34h-5v1.88h5.27v1.34H28.59v2.13h6.24Z" transform="translate(0 -14.79)"/></svg>