<svg id="マックスキャリア" xmlns="http://www.w3.org/2000/svg" viewBox="0 0 73.13 40.06"><defs><style>.cls-1{fill:#0e3a6d;}</style></defs><title>maxcareer</title><circle class="cls-1" cx="9.83" cy="3.34" r="3.34"/><circle class="cls-1" cx="27.55" cy="3.34" r="3.34"/><circle class="cls-1" cx="45.27" cy="3.34" r="3.34"/><circle class="cls-1" cx="62.99" cy="3.34" r="3.34"/><polygon class="cls-1" points="61.34 9.84 54.84 23.39 47.39 9.84 43.48 9.84 36.65 23.39 29.34 9.84 25.76 9.84 19.06 23.55 11.47 9.84 8.46 9.84 8.46 31.84 11.46 31.84 11.46 17.84 11.76 17.84 17.41 27.84 20.57 27.84 25.47 17.84 25.46 17.84 25.46 31.84 25.76 31.84 29.35 31.84 29.46 31.84 29.46 17.84 29.63 17.84 35.22 27.84 38.38 27.84 43.19 17.84 42.46 17.84 42.46 31.84 43.48 31.84 47.07 31.84 46.46 31.84 46.46 17.84 47.35 17.84 53.03 27.84 56.2 27.84 61.05 17.84 61.46 17.84 61.46 31.84 64.46 31.84 64.46 9.84 61.34 9.84"/><path d="M15.79,36.71c0.33,0.27.51,0.44,0.76,0.68l0.38,0.38A7.6,7.6,0,0,0,17.75,37a8.15,8.15,0,0,0,.75-1l0-.06v0H15.33a7,7,0,0,0-.79,0V35.17a4.48,4.48,0,0,0,.8,0h3.42a1.61,1.61,0,0,0,.51,0l0.43,0.49a1.91,1.91,0,0,0-.27.36,9.54,9.54,0,0,1-2,2.34c0.26,0.3.49,0.59,0.81,1l-0.65.52a10.12,10.12,0,0,0-1.19-1.55,10,10,0,0,0-1.23-1.19Z" transform="translate(-14.54 -0.16)"/><path d="M21.77,36.12a7.12,7.12,0,0,1,.6,1.46l-0.7.22a6.15,6.15,0,0,0-.56-1.49Zm3.54,0a1.32,1.32,0,0,0-.09.31,5.26,5.26,0,0,1-.85,2.05A4.73,4.73,0,0,1,22.49,40,2.25,2.25,0,0,0,22,39.41a4,4,0,0,0,1-.57,3.54,3.54,0,0,0,1.4-2.14A2.72,2.72,0,0,0,24.55,36Zm-2.22-.3a6,6,0,0,1,.6,1.42L23,37.5a6.77,6.77,0,0,0-.56-1.45Z" transform="translate(-14.54 -0.16)"/><path d="M31.68,35.72a1.15,1.15,0,0,0-.15.37,6.39,6.39,0,0,1-1.26,2.38A6.22,6.22,0,0,1,28.07,40a1.89,1.89,0,0,0-.52-0.65,5.55,5.55,0,0,0,1.35-.73,4.88,4.88,0,0,0,1.8-2.6l-1.85,0a6,6,0,0,1-1.44,1.58,1.65,1.65,0,0,0-.6-0.53,4.74,4.74,0,0,0,1.6-1.79,2.31,2.31,0,0,0,.31-0.81l0.84,0.17a1.22,1.22,0,0,0-.1.19l-0.08.17-0.08.16a1.43,1.43,0,0,1-.1.2h0.3l1.35,0a1.09,1.09,0,0,0,.45-0.06Z" transform="translate(-14.54 -0.16)"/><path d="M37.61,39.87A11.81,11.81,0,0,0,35.72,38a7.33,7.33,0,0,1-2.35,1.78,2.46,2.46,0,0,0-.5-0.68,5.06,5.06,0,0,0,1.23-.68A5.93,5.93,0,0,0,36.18,36l0.07-.16-2,0a4.93,4.93,0,0,0-.67.05l0-.79a2.76,2.76,0,0,0,.54,0H34.2l2.17,0A1.34,1.34,0,0,0,36.92,35l0.41,0.42a1.19,1.19,0,0,0-.2.33,8.15,8.15,0,0,1-1,1.7,9.6,9.6,0,0,1,1.14.89c0.15,0.14.15,0.14,0.9,0.86Z" transform="translate(-14.54 -0.16)"/><path d="M40.92,35.32a2.61,2.61,0,0,0-.15-0.58l0.81-.13a4.23,4.23,0,0,0,.07.58l0.1,0.54,1.3-.2a3.17,3.17,0,0,0,.59-0.14l0.13,0.74-0.59.08-1.3.2,0.19,1,1.45-.23a5.27,5.27,0,0,0,.64-0.14l0.14,0.74a1.43,1.43,0,0,0-.28,0h-0.1l-0.25,0-1.47.23,0.22,1.2a3.42,3.42,0,0,0,.15.63l-0.83.15a4.64,4.64,0,0,0-.08-0.65l-0.22-1.21-1.52.24a4.83,4.83,0,0,0-.63.14l-0.12-.76a3.78,3.78,0,0,0,.65-0.06l1.5-.24-0.18-1L40,36.71a6.8,6.8,0,0,0-.68.14l-0.12-.76A5.66,5.66,0,0,0,39.87,36L41,35.85Z" transform="translate(-14.54 -0.16)"/><path d="M46.61,36.2a2,2,0,0,0-.12-0.46l0.73-.11a2.42,2.42,0,0,0,.06.47l0.09,0.47,1.84-.31a1.54,1.54,0,0,0,.41-0.1l0.43,0.39a1.4,1.4,0,0,0-.15.3,3.5,3.5,0,0,1-1.21,1.6A1.74,1.74,0,0,0,48.12,38a2.9,2.9,0,0,0,1-1.1l-0.23,0-1.45.24,0.44,2.28A2.35,2.35,0,0,0,48,40l-0.77.14a2.55,2.55,0,0,0,0-.5l-0.42-2.3-0.53.09a3.22,3.22,0,0,0-.54.14l-0.13-.7a3.44,3.44,0,0,0,.59-0.06l0.51-.09Z" transform="translate(-14.54 -0.16)"/><path d="M53,34.81a3.21,3.21,0,0,0,0,.55v1.7a3,3,0,0,0,0,.54H52.2a4.42,4.42,0,0,0,0-.55V35.36a3.87,3.87,0,0,0,0-.55H53Zm2.8,0a2.88,2.88,0,0,0,0,.57v0.83a7.31,7.31,0,0,1-.16,1.87,2.37,2.37,0,0,1-1.21,1.44,5.24,5.24,0,0,1-1.2.47,2.1,2.1,0,0,0-.43-0.73,3.34,3.34,0,0,0,1.33-.49A1.74,1.74,0,0,0,55,37.2c0-.26,0-0.54,0-1V35.4a3.21,3.21,0,0,0,0-.59h0.86Z" transform="translate(-14.54 -0.16)"/><path d="M60.38,36.2a2.73,2.73,0,0,0,0,.5,3.33,3.33,0,0,1-.61,2.18A3.55,3.55,0,0,1,58.15,40a2.18,2.18,0,0,0-.49-0.7,2.83,2.83,0,0,0,1.08-.52,2.35,2.35,0,0,0,.82-2.19,1.59,1.59,0,0,0,0-.37h0.84Zm2.5-.78a1.74,1.74,0,0,0-.25.43,4,4,0,0,1-1.69,1.75A2.09,2.09,0,0,0,60.39,37a2.85,2.85,0,0,0,.9-0.57,2.56,2.56,0,0,0,.58-0.78H58.64a5.87,5.87,0,0,0-.84,0V35a5,5,0,0,0,.85,0h3.22a1.66,1.66,0,0,0,.6-0.06Z" transform="translate(-14.54 -0.16)"/><path d="M67.58,36.88h0.91a5,5,0,0,0,.66,0v0.7c-0.2,0-.4,0-0.67,0H67.8A4,4,0,0,0,69.33,39a1.62,1.62,0,0,0-.43.64A3.93,3.93,0,0,1,68.21,39a4.39,4.39,0,0,1-.66-0.94c0,0.21,0,.43,0,0.61v0.78a5.72,5.72,0,0,0,0,.71H66.9a5.81,5.81,0,0,0,0-.71V38.75c0-.17,0-0.39,0-0.63a4.4,4.4,0,0,1-1.46,1.6,2.66,2.66,0,0,0-.38-0.58,4,4,0,0,0,1.57-1.61H66.29a5.2,5.2,0,0,0-.67,0V37.29a1.89,1.89,0,0,0-.26.52A3.6,3.6,0,0,1,65,37c0,0.2,0,.54,0,0.81v1.58a6.26,6.26,0,0,0,0,.76H64.32a6.16,6.16,0,0,0,0-.76V38.11a7.07,7.07,0,0,1,0-.79,4.86,4.86,0,0,1-.65,1.45,2.23,2.23,0,0,0-.28-0.68,5.67,5.67,0,0,0,.83-1.86H64.05a1.9,1.9,0,0,0-.41,0V35.59a1.79,1.79,0,0,0,.41,0h0.31v-0.5a3.73,3.73,0,0,0,0-.63H65a5.43,5.43,0,0,0,0,.63v0.5h0.18a1.69,1.69,0,0,0,.33,0V36.2a4,4,0,0,0,.47-1.5l0.63,0.16c0,0.07,0,.14-0.09.33l-0.08.3h0.5V35.08a3.61,3.61,0,0,0,0-.58h0.71a3.69,3.69,0,0,0,0,.58V35.5h0.73a4.46,4.46,0,0,0,.66,0v0.68a4.7,4.7,0,0,0-.66,0H67.58v0.78Zm-1.34-.78a4,4,0,0,1-.35.68,2.26,2.26,0,0,0-.51-0.4l0.11-.15-0.3,0H65a4.18,4.18,0,0,0,.58,1V36.85a5.07,5.07,0,0,0,.67,0h0.65V36.11h-0.7Z" transform="translate(-14.54 -0.16)"/><path d="M74.67,35.56a3,3,0,0,0,.6,0v0.69a5.49,5.49,0,0,0-.72,0h-0.9a7,7,0,0,0,.43,2.37,2,2,0,0,0,.37.61,0.44,0.44,0,0,0,.14.11,1.67,1.67,0,0,0,.23-0.94,2.72,2.72,0,0,0,.58.35A2.84,2.84,0,0,1,75,39.83a0.53,0.53,0,0,1-.42.26,1.27,1.27,0,0,1-.82-0.6,4.48,4.48,0,0,1-.68-1.85A9.66,9.66,0,0,1,73,36.17H70.51a6.61,6.61,0,0,0-.72,0V35.52a5.59,5.59,0,0,0,.72,0h2.44c0-.32,0-0.32,0-0.5a3.45,3.45,0,0,0,0-.48h0.75a4.31,4.31,0,0,0,0,.5c0,0.1,0,.28,0,0.49h0.73a3.79,3.79,0,0,0-.58-0.73l0.54-.25a5.45,5.45,0,0,1,.61.7l-0.5.28h0.26Zm-4,2a5.83,5.83,0,0,0-.62,0V36.91a5.58,5.58,0,0,0,.64,0h1.49a5.31,5.31,0,0,0,.62,0v0.65a5.79,5.79,0,0,0-.62,0H71.72v1.4c0.43-.09.67-0.14,1.26-0.28v0.63c-1,.25-2,0.45-2.84.57l-0.23,0-0.11-.7A8.83,8.83,0,0,0,71,39.05V37.53H70.63Z" transform="translate(-14.54 -0.16)"/><path d="M77.12,36.51a5.82,5.82,0,0,1-1,.53,2.8,2.8,0,0,0-.36-0.63,5.75,5.75,0,0,0,1.55-.86,4.06,4.06,0,0,0,1-1H79a3.74,3.74,0,0,0,1,1,6.55,6.55,0,0,0,1.58.83,2.77,2.77,0,0,0-.34.69,6.6,6.6,0,0,1-1.05-.56V37a4.56,4.56,0,0,0-.55,0H77.65a4.78,4.78,0,0,0-.53,0V36.51ZM76.78,38.1a5.67,5.67,0,0,0-.73,0V37.42a6.16,6.16,0,0,0,.73,0h3.84a5.89,5.89,0,0,0,.72,0v0.71a5.63,5.63,0,0,0-.72,0H78.5a6.65,6.65,0,0,1-.64,1.19c1.09-.06,1.09-0.06,2-0.15l-0.65-.68,0.61-.27a12.52,12.52,0,0,1,1.42,1.65l-0.59.39-0.37-.54-1.11.14L77.05,40a7.15,7.15,0,0,0-.79.09l-0.1-.75,0.36,0,0.54,0a6.41,6.41,0,0,0,.66-1.23H76.78Zm2.92-1.78H80a5,5,0,0,1-1.29-1.19,5.25,5.25,0,0,1-1.28,1.19h2.3Z" transform="translate(-14.54 -0.16)"/><path d="M83.61,39.55a4.47,4.47,0,0,0,0,.63H82.9a3.66,3.66,0,0,0,0-.64V38a4.17,4.17,0,0,1-.68.52,2.35,2.35,0,0,0-.31-0.64A4.24,4.24,0,0,0,83,37a3.67,3.67,0,0,0,.67-0.95h-1a4.3,4.3,0,0,0-.52,0V35.43a3.64,3.64,0,0,0,.49,0h0.31V34.94a2.79,2.79,0,0,0,0-.47h0.75a2.69,2.69,0,0,0,0,.48v0.51h0.25l0.36,0,0.3,0.32a1.7,1.7,0,0,0-.14.26,5.06,5.06,0,0,1-.62,1.05,3.66,3.66,0,0,0,1,.78,2.62,2.62,0,0,0-.34.6,3.35,3.35,0,0,1-.8-0.7v1.79Zm2.61-.29H87a5.37,5.37,0,0,0,.7,0V40a5,5,0,0,0-.7,0H84.86a4.92,4.92,0,0,0-.7,0V39.22a5.68,5.68,0,0,0,.71,0h0.67V36.85H85.08c-0.21,0-.41,0-0.6,0v-0.7a4.26,4.26,0,0,0,.6,0h0.46V35.13a4.31,4.31,0,0,0,0-.64h0.77a3.59,3.59,0,0,0,0,.64v1.08h0.65a4.11,4.11,0,0,0,.6,0v0.7c-0.2,0-.39,0-0.6,0H86.23v2.41Z" transform="translate(-14.54 -0.16)"/></svg>