<svg id="メイテックネクスト" xmlns="http://www.w3.org/2000/svg" viewBox="0 0 99.99 10.16"><defs><style>.cls-1{fill:#006ab6;}</style></defs><title>meitec_next</title><path class="cls-1" d="M0,24.79l1.7-9.65H5.53l0.64,6,2.76-6h3.82l-1.7,9.65H8.21l0.52-2.95L9,20.34,9.5,18.59h0L6.63,24.79H4.43L3.77,18.59h0L3.62,20l-0.2,1.5L2.85,24.79H0Z" transform="translate(-0.01 -14.88)"/><path class="cls-1" d="M12.61,24.79l1.7-9.65h7.87l-0.4,2.25H17.08l-0.24,1.38h4L20.42,21h-4l-0.27,1.51h4.89l-0.4,2.25H12.61Z" transform="translate(-0.01 -14.88)"/><path class="cls-1" d="M22,24.79l1.7-9.65h3.16l-1.7,9.65H22Z" transform="translate(-0.01 -14.88)"/><path class="cls-1" d="M28.06,15.14h8.85l-0.45,2.53H33.62l-1.26,7.12H29.2l1.26-7.12H27.62Z" transform="translate(-0.01 -14.88)"/><path class="cls-1" d="M36.37,24.79l1.7-9.65h7.87l-0.4,2.25H40.84L40.6,18.77h4L44.18,21h-4l-0.27,1.51h4.89l-0.4,2.25H36.37Z" transform="translate(-0.01 -14.88)"/><path class="cls-1" d="M52.78,18.82a1.31,1.31,0,0,0-1.44-1.58c-1.11,0-2,1-2.28,2.82-0.24,1.35-.17,2.63,1.44,2.63A2,2,0,0,0,52.41,21h3a5.35,5.35,0,0,1-5.32,4c-3.19,0-4.78-2-4.22-5.09a5.86,5.86,0,0,1,5.71-5.07c2.95,0,4.34,1.46,4.16,3.94h-3Z" transform="translate(-0.01 -14.88)"/><path class="cls-1" d="M67.23,20.4l0.27-2.2L68,15.14h3l-1.7,9.65h-3l-2.52-5.26-0.27,2.2-0.54,3.06H60l1.7-9.65h3Z" transform="translate(-0.01 -14.88)"/><path class="cls-1" d="M70.15,24.79l1.7-9.65h7.87l-0.4,2.25h-4.7l-0.24,1.38h4L78,21H74l-0.27,1.51H78.6l-0.4,2.25H70.15Z" transform="translate(-0.01 -14.88)"/><path class="cls-1" d="M82.2,24.79H78.65l4.3-5-2.27-4.64h3.55l0.93,2.47L87,15.14h3.55l-4.08,4.64,2.4,5H85.31l-1.08-2.71Z" transform="translate(-0.01 -14.88)"/><path class="cls-1" d="M91.15,15.14H100l-0.45,2.53H96.71l-1.26,7.12H92.29l1.25-7.12H90.71Z" transform="translate(-0.01 -14.88)"/></svg>