<svg id="マイナビエージェント_201605変更" xmlns="http://www.w3.org/2000/svg" viewBox="0 0 98.43 14.77"><defs><style>.cls-1{fill:#005eac;}.cls-2{fill:#00aaea;}</style></defs><title>mynavi_ag</title><path class="cls-1" d="M73.58,26.2H70.9l-0.52,1.1a0.49,0.49,0,0,1-.46.3,0.51,0.51,0,0,1-.52-0.52,0.48,0.48,0,0,1,.05-0.22l2.31-5.14a0.48,0.48,0,0,1,.47-0.29,0.46,0.46,0,0,1,.47.29L75,26.87a0.48,0.48,0,0,1,.05.22,0.51,0.51,0,0,1-.52.52,0.47,0.47,0,0,1-.46-0.3Zm-1.34-3.26-0.94,2.3h1.88Z" transform="translate(-0.87 -13.28)"/><path class="cls-1" d="M81.29,26.55a3.19,3.19,0,0,1-2.47,1.08,3,3,0,0,1-3.09-3.12,3,3,0,0,1,3.07-3.12,2.85,2.85,0,0,1,2,.77,0.51,0.51,0,0,1,.17.37,0.49,0.49,0,0,1-.5.51,0.63,0.63,0,0,1-.36-0.13,2,2,0,0,0-1.33-.5,2,2,0,0,0-2,2.1,2,2,0,0,0,2,2.15,2.24,2.24,0,0,0,1.51-.54V25.19H79.16a0.5,0.5,0,0,1-.51-0.5,0.5,0.5,0,0,1,.51-0.5h1.7a0.56,0.56,0,0,1,.56.56V26.2A0.5,0.5,0,0,1,81.29,26.55Z" transform="translate(-0.87 -13.28)"/><path class="cls-1" d="M86.54,27.52H83.15A0.56,0.56,0,0,1,82.59,27V22.06a0.56,0.56,0,0,1,.56-0.55h3.25a0.51,0.51,0,0,1,.52.51,0.52,0.52,0,0,1-.52.52H83.7V24h1.49a0.51,0.51,0,0,1,.52.52,0.51,0.51,0,0,1-.52.51H83.7V26.5h2.85a0.52,0.52,0,0,1,.52.52A0.51,0.51,0,0,1,86.54,27.52Z" transform="translate(-0.87 -13.28)"/><path class="cls-1" d="M92.62,27.6a0.47,0.47,0,0,1-.4-0.19L89.1,23.47v3.62a0.52,0.52,0,0,1-1,0V22a0.52,0.52,0,0,1,.54-0.52,0.5,0.5,0,0,1,.38.19l3.12,3.94V22a0.51,0.51,0,0,1,.52-0.52,0.52,0.52,0,0,1,.52.52v5.12A0.51,0.51,0,0,1,92.62,27.6Z" transform="translate(-0.87 -13.28)"/><path class="cls-1" d="M98.77,22.54H97.23V27a0.56,0.56,0,0,1-.56.56A0.55,0.55,0,0,1,96.12,27V22.54H94.57a0.52,0.52,0,1,1,0-1h4.2a0.52,0.52,0,0,1,.52.52A0.52,0.52,0,0,1,98.77,22.54Z" transform="translate(-0.87 -13.28)"/><circle class="cls-2" cx="24.38" cy="13.16" r="1.61"/><path class="cls-2" d="M27.85,15a1.2,1.2,0,0,0-.7-1.62,1.38,1.38,0,0,0-1.67.74c-0.56,1-3.45,6.44-3.93,7.35s-1.09,2.2-1.6,2-1-2.17-1.24-2.73c-0.41-1-1.25-2.2-2.66-1.9-1.07.23-1.69,1.07-2.66,2.94A17.83,17.83,0,0,1,12,24.1c-1,1.36-1.56-.88-1.89-2-0.44-1.55-1.24-3.75-3-3.75-1,0-2,.57-3.34,2.68C3,22.23,1.25,25.67,1,26.29a1.21,1.21,0,0,0,.61,1.64,1.33,1.33,0,0,0,1.68-.61c1.25-1.94,1.6-2.7,2.24-3.59s1.62-1.8,2.33.49C8.3,25.66,9.08,28,11.19,28a4.21,4.21,0,0,0,3.2-2.13,14.82,14.82,0,0,1,1.4-2.38c0.27-.29.67-0.4,1.05,0.45s1.12,3.4,2.48,4c1.91,0.8,3.72-3.07,4.34-4.3C24.17,22.64,27.63,15.49,27.85,15Z" transform="translate(-0.87 -13.28)"/><path d="M34.78,26a14.37,14.37,0,0,1,.94,1.58,0.24,0.24,0,0,1-.19.34H33.82a0.4,0.4,0,0,1-.36-0.23,33,33,0,0,0-2.9-4.39A0.23,0.23,0,0,1,30.73,23h1.6a0.58,0.58,0,0,1,.44.26c0.29,0.37.54,0.68,0.87,1.14a5.1,5.1,0,0,0,2.54-3.23,0.24,0.24,0,0,0-.24-0.33H29.5a0.32,0.32,0,0,1-.32-0.32v-1.2a0.32,0.32,0,0,1,.32-0.32h8.55a0.36,0.36,0,0,1,.44.4A7.76,7.76,0,0,1,34.78,26" transform="translate(-0.87 -13.28)"/><path d="M44.68,27.61a0.32,0.32,0,0,1-.32.32H43a0.32,0.32,0,0,1-.32-0.32V23.77a13.08,13.08,0,0,1-3.77.94,0.34,0.34,0,0,1-.39-0.33V23.17a0.36,0.36,0,0,1,.34-0.35c3.88-.64,5.73-2.37,6.32-3.72a0.44,0.44,0,0,1,.39-0.26h1.53a0.29,0.29,0,0,1,.3.36,7.36,7.36,0,0,1-2.73,3.63v4.78Z" transform="translate(-0.87 -13.28)"/><path d="M54,21H56.7a0.32,0.32,0,0,1,.32.32v1.19a0.32,0.32,0,0,1-.32.32H54c-0.19,3.3-1.88,4.71-5.26,5.17a0.31,0.31,0,0,1-.35-0.29V26.53a0.34,0.34,0,0,1,.31-0.33c2.18-.44,3.18-1.16,3.32-3.32H48a0.32,0.32,0,0,1-.32-0.32v-1.2A0.32,0.32,0,0,1,48,21h4V19.16a0.32,0.32,0,0,1,.32-0.32h1.33a0.32,0.32,0,0,1,.32.32V21Z" transform="translate(-0.87 -13.28)"/><path d="M65.93,20.25H65.06A0.33,0.33,0,0,1,64.72,20c-0.11-.3-0.3-0.89-0.33-1a0.18,0.18,0,0,1,.19-0.24h1a0.3,0.3,0,0,1,.3.2L66.15,20A0.2,0.2,0,0,1,65.93,20.25Z" transform="translate(-0.87 -13.28)"/><path d="M64,20.25H63.16A0.33,0.33,0,0,1,62.82,20c-0.11-.3-0.3-0.89-0.33-1a0.18,0.18,0,0,1,.19-0.24h1a0.3,0.3,0,0,1,.3.2L64.25,20A0.2,0.2,0,0,1,64,20.25Z" transform="translate(-0.87 -13.28)"/><path d="M66.39,27.61a0.32,0.32,0,0,1-.32.32H60.74c-1.8,0-2.59-.66-2.59-2.47v-6.3a0.32,0.32,0,0,1,.32-0.32h1.27a0.32,0.32,0,0,1,.32.32V21h5.86a0.32,0.32,0,0,1,.32.32v1.19a0.32,0.32,0,0,1-.32.32H60.07v2.19a0.89,0.89,0,0,0,1.11,1h4.89a0.32,0.32,0,0,1,.32.32v1.21Z" transform="translate(-0.87 -13.28)"/></svg>