<svg id="TYMコーポレーション" xmlns="http://www.w3.org/2000/svg" viewBox="0 0 98.95 39.33"><defs><style>.cls-1{fill:#009fe8;}.cls-2{fill:#656464;}</style></defs><title>tym_corp</title><path class="cls-1" d="M3,16.13A1.92,1.92,0,1,0,4.9,18,1.91,1.91,0,0,0,3,16.13" transform="translate(-0.52 -0.33)"/><path class="cls-1" d="M36.61,7.49A1.91,1.91,0,1,0,38.53,9.4a1.91,1.91,0,0,0-1.92-1.91m26,0A1.91,1.91,0,1,0,64.58,9.4a1.92,1.92,0,0,0-1.91-1.91" transform="translate(-0.52 -0.33)"/><path class="cls-1" d="M97,16.13A1.92,1.92,0,1,0,98.93,18,1.92,1.92,0,0,0,97,16.13" transform="translate(-0.52 -0.33)"/><rect class="cls-2" x="84.19" y="30.34" width="0.91" height="6.21"/><path class="cls-1" d="M97.44,18C95.69,7.27,88.66,3.07,85.23,1.66a1.33,1.33,0,0,0-.36-0.14,2.56,2.56,0,0,0-.76-0.13A1.46,1.46,0,0,0,83,1.89,3.53,3.53,0,0,0,80.78.54l-0.36,0a28.1,28.1,0,0,0-3-.16h0a18.59,18.59,0,0,0-3.5.32l-0.11,0a4.64,4.64,0,0,0-3.37,2.46l0,0L70.23,3l0,0a1.41,1.41,0,0,0-.82-0.25,3.46,3.46,0,0,0-2,.88l-0.06,0c-5.57,4.21-8.41,10.53-17.72,10.52-6.78,0-10.09-3.32-13.58-6.78S29,0.33,21.86.33A20,20,0,0,0,15,1.49l-0.87.35a1,1,0,0,0-.3.13C10.61,3.38,4.12,7.58,2.51,18.28a0.44,0.44,0,0,0,.36.5H2.94a0.44,0.44,0,0,0,.43-0.37c1.57-9.47,7.79-13,10.8-14.28l0.07,0h0l0.12,0,0.9-.33a20.44,20.44,0,0,1,5.95-1V19.53h1.31V2.78C28.84,3,32.07,6.19,35.44,9.54s6.89,6.8,13.55,7v9.4h1.31V16.56c9.92-.32,12.42-7.49,17.57-11l0.09-.06a4.08,4.08,0,0,1,.5-0.33,2.08,2.08,0,0,1,.92-0.3,0.65,0.65,0,0,1,.37.11l0,0,0.05,0a1.08,1.08,0,0,1,.16.2V19.53H71.3V4.66A4,4,0,0,1,74,3h0.09a19.61,19.61,0,0,1,3.35-.28,28.79,28.79,0,0,1,2.9.14l0.34,0a3.2,3.2,0,0,1,1,.34,2,2,0,0,1,.69.64V19.53h1.31V3.9a0.59,0.59,0,0,1,.49-0.19,1.79,1.79,0,0,1,.52.09,0.6,0.6,0,0,1,.16,0h0l0.07,0A18.16,18.16,0,0,1,96.58,18.15a0.43,0.43,0,0,0,.47.36,0.44,0.44,0,0,0,.39-0.43V18Z" transform="translate(-0.52 -0.33)"/><polygon class="cls-2" points="3.56 28.42 3.56 36.55 2.6 36.55 2.6 28.42 0 28.42 0 27.57 6.16 27.57 6.16 28.42 3.56 28.42"/><polygon class="cls-2" points="13.68 32.84 13.68 36.55 12.72 36.55 12.72 32.84 10.05 27.57 11.08 27.57 13.2 31.87 15.3 27.57 16.34 27.57 13.68 32.84"/><polygon class="cls-2" points="27.88 36.55 27.88 29.73 25.42 35.14 24.6 35.14 22.1 29.73 22.1 36.55 21.14 36.55 21.14 27.57 22.1 27.57 25.03 33.94 27.88 27.57 28.84 27.57 28.84 36.55 27.88 36.55"/><path class="cls-2" d="M37.91,37A3.2,3.2,0,0,1,35.62,36c-0.85-.84-0.85-1.72-0.85-3.63s0-2.79.85-3.64a3.19,3.19,0,0,1,2.29-.93A3,3,0,0,1,41,30.51H40a2.12,2.12,0,0,0-2.14-1.82,2.16,2.16,0,0,0-1.55.63c-0.57.58-.63,1.2-0.63,3.08s0.06,2.5.63,3.08a2.2,2.2,0,0,0,3.71-1.19h1A3,3,0,0,1,37.91,37" transform="translate(-0.52 -0.33)"/><path class="cls-2" d="M47,36.25a2.58,2.58,0,0,1-3.56,0,3.34,3.34,0,0,1-.76-2.47,3.34,3.34,0,0,1,.76-2.47,2.6,2.6,0,0,1,3.56,0,3.34,3.34,0,0,1,.75,2.47A3.33,3.33,0,0,1,47,36.25m-0.65-4.39a1.57,1.57,0,0,0-1.13-.46,1.55,1.55,0,0,0-1.12.46,2.69,2.69,0,0,0-.5,1.91,2.71,2.71,0,0,0,.5,1.92,1.55,1.55,0,0,0,1.12.46,1.58,1.58,0,0,0,1.13-.46,2.7,2.7,0,0,0,.49-1.92,2.68,2.68,0,0,0-.49-1.91" transform="translate(-0.52 -0.33)"/><path class="cls-2" d="M53.15,31.87a1.3,1.3,0,0,0-1.07-.46,1.52,1.52,0,0,0-1.49,1.66v3.81H49.68V30.68h0.91v0.76a2.09,2.09,0,0,1,1.74-.83,1.93,1.93,0,0,1,1.49.58Z" transform="translate(-0.52 -0.33)"/><path class="cls-2" d="M59.17,36.42a2.19,2.19,0,0,1-1.52.54,2,2,0,0,1-1.75-.81v3.5H55v-9H55.9v0.73a2,2,0,0,1,1.75-.81,2.18,2.18,0,0,1,1.52.54,3.72,3.72,0,0,1,.76,2.64,3.74,3.74,0,0,1-.76,2.64m-1.7-5c-1.35,0-1.57,1.16-1.57,2.37s0.21,2.38,1.57,2.38S59,35,59,33.78s-0.2-2.37-1.55-2.37" transform="translate(-0.52 -0.33)"/><path class="cls-2" d="M65.86,36.25a2.58,2.58,0,0,1-3.56,0,3.32,3.32,0,0,1-.76-2.47,3.33,3.33,0,0,1,.76-2.47,2.59,2.59,0,0,1,3.56,0,3.34,3.34,0,0,1,.76,2.47,3.33,3.33,0,0,1-.76,2.47m-0.65-4.39a1.63,1.63,0,0,0-2.26,0,2.7,2.7,0,0,0-.5,1.91A2.71,2.71,0,0,0,63,35.7a1.62,1.62,0,0,0,2.26,0,2.72,2.72,0,0,0,.49-1.92,2.7,2.7,0,0,0-.49-1.91" transform="translate(-0.52 -0.33)"/><path class="cls-2" d="M72,31.87A1.31,1.31,0,0,0,71,31.41a1.52,1.52,0,0,0-1.49,1.66v3.81H68.56V30.68h0.91v0.76a2.09,2.09,0,0,1,1.74-.84,1.93,1.93,0,0,1,1.49.58Z" transform="translate(-0.52 -0.33)"/><path class="cls-2" d="M77.4,36.89v-0.6a2.18,2.18,0,0,1-1.79.67,2.22,2.22,0,0,1-1.76-.57,1.82,1.82,0,0,1-.46-1.26c0-1.09.76-1.79,2.15-1.79H77.4v-0.6c0-.91-0.45-1.36-1.59-1.36a1.63,1.63,0,0,0-1.57.7l-0.62-.56a2.39,2.39,0,0,1,2.19-.93c1.67,0,2.49.72,2.49,2.07v4.22H77.4Zm0-2.87H75.66c-0.93,0-1.39.38-1.39,1.1s0.44,1.06,1.42,1.06a1.84,1.84,0,0,0,1.39-.42,1.42,1.42,0,0,0,.32-1.07V34Z" transform="translate(-0.52 -0.33)"/><path class="cls-2" d="M82.26,36.89a1.53,1.53,0,0,1-1.59-1.67V31.41H79.89V30.72h0.78V28.77h0.91v1.95h1.33v0.69H81.58V35.2a0.79,0.79,0,0,0,.84.91h0.48v0.78H82.26Z" transform="translate(-0.52 -0.33)"/><path class="cls-2" d="M91.89,36.25a2.58,2.58,0,0,1-3.56,0,3.31,3.31,0,0,1-.76-2.47,3.32,3.32,0,0,1,.76-2.47,2.59,2.59,0,0,1,3.56,0,3.34,3.34,0,0,1,.75,2.47,3.33,3.33,0,0,1-.75,2.47m-0.64-4.39a1.58,1.58,0,0,0-1.13-.46,1.56,1.56,0,0,0-1.13.46,2.71,2.71,0,0,0-.5,1.91A2.73,2.73,0,0,0,89,35.7a1.57,1.57,0,0,0,1.13.46,1.59,1.59,0,0,0,1.13-.46,2.71,2.71,0,0,0,.49-1.92,2.69,2.69,0,0,0-.49-1.91" transform="translate(-0.52 -0.33)"/><path class="cls-2" d="M98.57,36.89V33.06a1.54,1.54,0,1,0-3.07,0v3.83H94.6V30.68H95.5v0.68a2.23,2.23,0,0,1,1.74-.76,2.16,2.16,0,0,1,1.58.58,2.28,2.28,0,0,1,.65,1.73v4H98.57Z" transform="translate(-0.52 -0.33)"/><path class="cls-2" d="M9.38,36.29a0.62,0.62,0,1,1-.62-0.62,0.62,0.62,0,0,1,.62.62" transform="translate(-0.52 -0.33)"/><path class="cls-2" d="M19.28,36.29a0.62,0.62,0,1,1-.62-0.62,0.62,0.62,0,0,1,.62.62" transform="translate(-0.52 -0.33)"/><path class="cls-2" d="M85.79,28.4a0.62,0.62,0,1,1-.62-0.62,0.61,0.61,0,0,1,.62.62" transform="translate(-0.52 -0.33)"/></svg>