<svg id="レイヤー_2" data-name="レイヤー 2" xmlns="http://www.w3.org/2000/svg" viewBox="0 0 270.24 241.96"><defs><style>.cls-1{fill:#e5f2fe;}</style></defs><title>index</title><path class="cls-1" d="M490.38,128.38l-4.46,3.33s.67,2.75,1.08,5.33,1,9.08-.12,10.42,1.38,5.46.13,6.25-1.92,1.92-3.29,1.58-1.54.88-1.33,2,2.25,4.08,1.71,5.08-1.5,3.13-4.08,3.08-7.54-1.87-8.54-2.83-3.17,1.08-2,2.83.74,2.46-.34,3.29a40.53,40.53,0,0,1-6.71,4.08c-1.92.75-.33,4.38-1.58,5.67s2.88,2.88,3.75,4.63,1.08,3.33-.71,5.83.29,3.25,1.25,4,1.92.79,3.25-1.08,1.67-4.25,3.63-4.5,6,1.92,7.17.58-2.08-2.12-4.79-4.75-3.75-1.46-3.5-3.54c.09-.72-2.51.28-2.87-.17-.69-.84.59-2.91.75-3.75.25-1.29,1.17-1.58,3.58-1s2.67,1.38,2.67,1.38l2.5,3.42s.38-.08,1.79-1.58,2.33-2.58,6.21-3.29,19.17,7.54,22.46,9.63-.79-3.87,3.25-8.08,4.67-8.54,10-8,8.54,2.83,8.5.92.13-2.21,1.38-1.29.92,1.75,3.29-.92,5.13-.75,8.5-4c-2.12-.29-4.67.88-6.12-.75s1.38-1.87-.33-3.54-3-3.49,1.46-9.67c1.82-2.55,0-2.62-1.75-.71-1.64,1.75-2.58,5.25-6.17,4.79s-5.33.21-7.21-2.12-5.42,1.38-8.83-2.21-10.17-6.54-11.37-8.58S492,132.5,490.38,128.38Z" transform="translate(-286.56 -128.37)"/><path class="cls-1" d="M540.21,154.83c1.75-1,9.17-8.58,9.88-9.62s2.13-.12,3.33,0a6.41,6.41,0,0,0,2.5.08c1-.21,1.54.71-.75,1.79s-2.87,1.42-3.42,2.08-.58-.12-.42-.79-1.37.63-2,1.4-8.08,6.48-8.67,7.23S538.83,155.91,540.21,154.83Z" transform="translate(-286.56 -128.37)"/><path class="cls-1" d="M463,208.17c-.9-1-1.54-2.46,1.38-3.67s4.88-1.25,4.67-4.71,0-4.5.92-3.46a2,2,0,0,0,2.79.29c.58-.5,0,3.08,1.63,5s2.46-1.17,2.46-2.17,1.25,1.17,2.5,1.46,3.33.08,3.33-.87.21-2.46.25-3.46-1.67-.67-2.37.29-3.71,0-4,.71-.58.08-.71-1.21.42-1.7,1-2.93,1.67-2.73,2.25-1.73,4,3.13,4.75,2.46,2.54-1.37,1.67.71a14.69,14.69,0,0,0-.46,8c.54,3.13,1.92,2.29,4.21,4.71a25.83,25.83,0,0,1,5.21,9.46c.58,2.46-.75,9.54-3.87,14.08s-4.25,8.42-3.33,10.29-.37,1.33-1.92-.29-5,.5-6.17,2.46,1.21,8.88.63,15.54-7.46,10.33-6.87,15.08,2.25,6.29,3.25,7.29-2.46,1.13-4.12,3.58-.67,5.42-3.83,6.71-4.83,2.08-5.46,3.67-2-.42-.92-3.12,1.13-3.92,2.58-5.33,2.25-3.75,0-3.25-3.62.25-4,2.13-1.33,2.33-.75,4.08-.17,2-1.21,1.42-4-3.33-5.54-1.46-.5,4.29-2.29,6.46-5,5-4.87,2.25.33-4.71,0-5.54-1.92-.87-3.21.42-4.83,5.67-6,7.17-2.79-1.08-6.42-.33-1.92-1.83-3.75-.58a8.71,8.71,0,0,1-6.5,1.39c-2.17-.48,3.46-1.44,3.33-2.52s-3.67-.75-4.21.08-2.46.13-2.25-1.33.42-3.17-1.25-3.12-2.54,1.92-3.25,3.38a3.55,3.55,0,0,0,2.42,4.63c2.25.58,3,1.21,1.92,2.54s-2.54-.83-4.21.38-4.25,1.25-5.12,5-2.62,1.38-4.29,6.17-3.29,2.83-5,1.21-4.92-2.75-5.87-4.37-2.46-2.42-1.37-5.25,4.54-6,3.67-8-3.21-.62-4.83.75-3,2.33-2.62,3.92-.46,2-1.62,2.25-2.42-1-1.29-2.46,3.29-2.12,3.46-3.62.67-2.5-5.17-2.5-7.92,4.83-10,4.79-3-1-4.5-.83-2.17,2-4.17,2-6.83,2.13-10.21,2.13-3.42-1.67-4.42-1.67-2.29,2.92-2.25,5-1.25,2.21-3.5,1.71-2.92-2.08-4.37-2.08-4.5,1.08-5.92,1-.5,1.38-1.67,1.25-1.87-1.17-3-1.17-3-.67-3-1.92.75-2.33,1.79-3.75,2.33-1.33,2.75-.71,1.71.54,3.21-.54,3.5-4.58,6.67-4.5,7-7.83,9.5-7.87,2.88-4.83,4.83-4.92,5-.92,7.25-.87,3,1.33,5.29,1.33a88.47,88.47,0,0,0,13.21-2.25c2.38-.71,4.83-.12,6.54-.12s1.67-1.92,4-1.92.42,2.46,2.21,2.46,3.58,1.38,4.83,1.38,2-1.92,4.54-1.92,2.46-1.71,2.42-2.75-1.79-.71-1.79-2,3.21-3.67,3.17-4.71,7.92-5.5,7.92-7.17,1.29-2.25,1.25-4-1.08-2.42-1.12-4,.42-3.12,2.63-3.21,2.63-1.17,3.75-1.21,1.58-1.08,2.75-1.08,1.38,2.08.21,2.17.09,2-1.47,2.08S420.5,260,419.46,260s-2.37,1.54-1.12,1.54,1.42.38,1.42,1.29-1,1.46-1,2a2,2,0,0,0,1.92,1.46c1.13,0,2.08-.42,3.63-.42s1-2.5,2.92-2.58,2.17-1.12,4.17-1.21,1.83-1.79,3.88-1.83,5.46-2.42,6.5-3.67,3.17-5,4.13-6.42a6.82,6.82,0,0,1,5.17-2.83c2.08,0,4.5-2.92,4.58-4.79s1.46-4,3-6.46,2.58-5.5,3.71-7.83,2.42-4,2.46-6.37,0-4.62-1.42-4.58-4,1.17-3.87-.21,2.33-.83,3-2.62,1.29-2.92,1-4.46S463.71,209,463,208.17Z" transform="translate(-286.56 -128.37)"/><path class="cls-1" d="M438.75,243.75c1.31-1.56,3.5-.62,2.13,1.13s2.56,1.13.13,3.56-4.12,1.19-2.75,0S435.63,246.38,438.75,243.75Z" transform="translate(-286.56 -128.37)"/><path class="cls-1" d="M364,310.5c4.94-2.37,4.19-4.81,7.94-5.87s7.06,2.56,8.63,1.88,2,.63.88,2.13,4.31,2.69,3.13,3.69-4.06,1.38-5.56,3.81-1.62,5.06-3.5,5.25-5.06-6.19-7.62-4.69-4.31,6-7.12,6.81-.81,5.75-2.94,6.44-3-1.56-4.81-1.19-3.06-2.19-3.06-3.87,1.13-2.25,0-3.69a4.51,4.51,0,0,0-4.81-1.44c-1.31.63,1.13-.81,3.44-2.25s5.06-6.25,6.19-7.81,1.63-1.81,2.69-1.94S358.33,313.23,364,310.5Z" transform="translate(-286.56 -128.37)"/><path class="cls-1" d="M306.81,320.88c.06-1.86,2.44-.31,3.25-1.06s-1.31-2,0-2.56,1.81,2.25,3.13,1.25.44-2.81,1.5-3.37,3.31,1.5,4.13,0,2.5-3.81,4.38-3.87a17.23,17.23,0,0,1,4.44.75c1.38.25,3.13,5,4.75,4.88s1-1.69,3.63-1.69,3.81,2.25,3.63,3.25-3.25,2-3.12,3.25,3.94.94,4.06,2.94,3.06,2.38,3.06,3.44-5.87,1.94-6.31,9.13-3.69,11.56-3.69,13.31-2.31-.06-3.31,0-.56,1-.62,2.56-3.75,4.38-5.69,4.38,1.25-2.19,1.22-4.19-1.66-2.62-1.66-3.87,1.94-3.06.31-3.06-2.06,1.13-2.19,3.5.81,2.25.75,3.81-1.69.63-2.94.69-3.69-.44-3.62-2.44,1.88-1.87,2-3.25-2.5-4.5-2.37-6.31,3.38-2.69,3.63-4.19,2.19-2.07,2.19-3.78-.81-.72-.69-2.65.44-2.44,0-4-1.69-2.56-2.44-3.75-2.5-1.56-2.62.44,1.19,1.31,1.13,2.19,1.81.13,1.81,2.19-1.06,3.44-2.5,3.5-1.62-2-2.37-2.18-2.37,3.31-3.44,3.31,1.13-3.87-.75-4-2.19-.87-2.19-2.75,1.56-2.06,1.81-1.31,1,2.63,2.56,2.69.44-1.25.44-2.12-2.12-.37-2.44-1.19S306.69,324.75,306.81,320.88Z" transform="translate(-286.56 -128.37)"/><path class="cls-1" d="M312.63,336c-.09-1.59.66-2.91,1.66-2.91s1.22,1.16,2.19,1.13,1.28-1.09,2.16-1.12,1.09.34,1.09,1.28-.06,2-1.44,2-1-1-1.59-1-2,2.09-2,3.19-.72.78-1.22.78S312.75,338.22,312.63,336Z" transform="translate(-286.56 -128.37)"/><path class="cls-1" d="M328.71,364.46c0-1.66,1.33-2.81,1.21-3.73s-1.27-.35-1.81-.29-.5,1.35-.5,2.25-1,1.65-1,2.5-1,.79-1,1.48.88,1.35,1.6,1.35.35-.83.42-1.67S328.71,365.63,328.71,364.46Z" transform="translate(-286.56 -128.37)"/><path class="cls-1" d="M320.79,366.27a2.08,2.08,0,0,0-2.15,1.88c0,.81,1.6,2.19,2.25,2.19s1.17-.9,1.65-1.21,1.21-.44,1-1.46S322.69,366.27,320.79,366.27Z" transform="translate(-286.56 -128.37)"/><path class="cls-1" d="M313.92,240.67c2.08-1.39,4.25-3,4.75-1.67s-5.92,4.75-4.75,6.58-2.5-.83-3-1.83S311.39,242.36,313.92,240.67Z" transform="translate(-286.56 -128.37)"/><path class="cls-1" d="M306.19,250.88c.11-1.62.44-2.64,1.44-1.69s.88,3.19,0,3.19A1.32,1.32,0,0,1,306.19,250.88Z" transform="translate(-286.56 -128.37)"/><path class="cls-1" d="M300.94,256.44c-1.52.29-.37,2.88.88,1.56s2.31-1.81,2.38-2.59S302.94,256.06,300.94,256.44Z" transform="translate(-286.56 -128.37)"/><path class="cls-1" d="M295.38,266.69c.92-1.43,3.41-2.55.88,2.44-1.16,2.28-3,.34-4,1.78s-2.84,6.18-3.59,6.16c-1.63-.05-2.19,0-2.12-.94s.44-.19,1.63-2.94,2.94-2.12,3.38-3.19-1-1.87-.87-2.56S293.81,269.13,295.38,266.69Z" transform="translate(-286.56 -128.37)"/><path class="cls-1" d="M301.75,303.63c.38-2.31,2.63-5,3.69-4.19s-1.81,3-1.84,5-3.22,5.26-3,3.2S301.31,306.31,301.75,303.63Z" transform="translate(-286.56 -128.37)"/></svg>