<svg id="レイヤー_1" data-name="レイヤー 1" xmlns="http://www.w3.org/2000/svg" viewBox="0 0 433.65 160.32"><defs><style>.cls-1{fill:red;}</style></defs><title>tenshoku-ex</title><rect x="228.9" y="100.08" width="9.36" height="0.01"/><path d="M234.5,77.19q3,1.75,9,1.76l1.86-9.24c-1.93-.71-2.72-2-2.36-3.75l3.42-17H238l-4.82,23.87Q232.56,75.79,234.5,77.19Z"/><polygon points="217.73 53.17 206.97 53.17 208.29 46.61 197.16 46.61 195.84 53.17 186 53.17 184.11 62.52 215.84 62.52 217.73 53.17"/><path d="M166.74,152.92h22.62q7,0,8.61-7.85l8.71-43.13H177Zm17.87-41.61h10.71l-2.25,11.13H182.36Zm-4.16,20.6h10.71l-1.81,8.94q-.55,2.71-2.79,2.71H178.1Z"/><path d="M223.58,94.46h18.26l2.08-10.3H225.66l7.59-37.56H223l-7.59,37.56h-8.3l7.06-17h-9.49l-6.94,17h-4.44l-.2-17h-9.37l.2,17h-6.55l-2.08,10.3h38l-10,49.58q-2,9.72,8.34,9.71h18.26l1.95-9.68H216.38c-1.87,0-2.63-.93-2.25-2.79l1-5.11h8.44a8.61,8.61,0,0,0,5.68-2,11.33,11.33,0,0,0,3.34-6.11l5.65-28H228.9l-4.07,20.11c-.69,3.43-1.62,5.15-2.8,5.15h-4.69Z"/><path d="M142.92,50.47l-2.08,10.29h4.68l-14.86,73.61-4.75.35L123.82,145l26.81-2.45-2.77,13.69h10.4l19.28-95.49h5.1l2.08-10.29Zm12.9,10.29h11.23l-3.21,15.92H152.6Zm-3.1,71.5-11.55,1,3.69-18.24h11.34Zm5.55-27.5H146.93l.95-4.67,2.67-13.23h11.34l-2.67,13.23Z"/><polygon points="124.79 53.17 81.38 53.17 79.09 64.5 122.5 64.5 124.79 53.17"/><polygon points="2.08 134.72 0 145.01 0.43 145.01 2.52 134.72 2.08 134.72"/><path d="M100.41,93.42H118.2l2.27-11.24H74L71.74,93.42H87.3L66.17,133.16a34.87,34.87,0,0,0-4,10.44l-2,9.84H94.84a10.7,10.7,0,0,0,8.41-3.41,14.56,14.56,0,0,0,3.49-7.41l4.42-21.88H99.93l-3.48,17.21q-.94,4.67-3.64,4.68H74.55Z"/><path d="M75.63,65.45l2.08-10.3H53.25l1.54-7.61H44.5L43,55.15H18.15l-2.08,10.3H40.88l-1.81,8.94H17.23L6.75,126.29H28.59l-1.7,8.43H2.51L.43,145H24.81l-2.08,10.3H33L35.1,145H59.56l2.08-10.3H37.18l1.7-8.43h15q7.15,0,8.68-7.59l8.95-44.31H49.37l1.8-8.94ZM30.67,116H18.19l2.27-11.24H32.94Zm23.68-2.93A3.27,3.27,0,0,1,50.83,116H41l2.27-11.24H56ZM24.51,84.69H37L34.83,95.4H22.35Zm35.57,0L57.92,95.4H45.12l2.17-10.72Z"/><path d="M433.65,0,335.52,77l20.38,9.34L344.79,98.24,339.48,84h-75l-14.13,70h43l-6.69,6.38,98.13-77-20.38-9.34ZM275.19,138.09l2.79-13.8h33.69l2.87-14.23H280.85L283.09,99h36.34l.92-4.57,9.14,20.17-22,23.52Z"/><polygon class="cls-1" points="344.04 136.84 351.12 153.94 375.42 153.94 361.33 123.26 344.04 136.84"/></svg>